<?xml version="1.0" encoding="UTF-8" standalone="no"?>
<!DOCTYPE svg PUBLIC "-//W3C//DTD SVG 1.1//EN"
 "http://www.w3.org/Graphics/SVG/1.1/DTD/svg11.dtd">
<!-- Generated by graphviz version 9.0.0 (20230911.1827)
 -->
<!-- Title: fx_graph Pages: 1 -->
<svg width="1145pt" height="1128pt"
 viewBox="0.00 0.00 1145.00 1127.50" xmlns="http://www.w3.org/2000/svg" xmlns:xlink="http://www.w3.org/1999/xlink">
<g id="graph0" class="graph" transform="scale(1 1) rotate(0) translate(4 1123.5)">
<title>fx_graph</title>
<polygon fill="white" stroke="none" points="-4,4 -4,-1123.5 1141,-1123.5 1141,4 -4,4"/>
<!-- primals_1 -->
<g id="node1" class="node">
<title>primals_1</title>
<path fill="AliceBlue" stroke="black" d="M12,-1021C12,-1021 121,-1021 121,-1021 127,-1021 133,-1027 133,-1033 133,-1033 133,-1107 133,-1107 133,-1113 127,-1119 121,-1119 121,-1119 12,-1119 12,-1119 6,-1119 0,-1113 0,-1107 0,-1107 0,-1033 0,-1033 0,-1027 6,-1021 12,-1021"/>
<text text-anchor="middle" x="66.5" y="-1101.7" font-family="Times,serif" font-size="14.00" fill="#000000">name=%primals_1</text>
<polyline fill="none" stroke="black" points="0,-1094.5 133,-1094.5"/>
<text text-anchor="middle" x="66.5" y="-1077.2" font-family="Times,serif" font-size="14.00" fill="#000000">op_code=placeholder</text>
<polyline fill="none" stroke="black" points="0,-1070 133,-1070"/>
<text text-anchor="middle" x="66.5" y="-1052.7" font-family="Times,serif" font-size="14.00" fill="#000000">target=primals_1</text>
<polyline fill="none" stroke="black" points="0,-1045.5 133,-1045.5"/>
<text text-anchor="middle" x="66.5" y="-1028.2" font-family="Times,serif" font-size="14.00" fill="#000000">num_users=2</text>
</g>
<!-- convolution -->
<g id="node9" class="node">
<title>convolution</title>
<path fill="#ffe1ff" stroke="black" d="M145,-746C145,-746 362,-746 362,-746 368,-746 374,-752 374,-758 374,-758 374,-972 374,-972 374,-978 368,-984 362,-984 362,-984 145,-984 145,-984 139,-984 133,-978 133,-972 133,-972 133,-758 133,-758 133,-752 139,-746 145,-746"/>
<text text-anchor="middle" x="253.5" y="-966.7" font-family="Times,serif" font-size="14.00" fill="#000000">name=%convolution</text>
<polyline fill="none" stroke="black" points="133,-959.5 374,-959.5"/>
<text text-anchor="middle" x="253.5" y="-942.2" font-family="Times,serif" font-size="14.00" fill="#000000">op_code=call_function</text>
<polyline fill="none" stroke="black" points="133,-935 374,-935"/>
<text text-anchor="middle" x="253.5" y="-917.7" font-family="Times,serif" font-size="14.00" fill="#000000">target=torch.ops.aten.convolution.default</text>
<polyline fill="none" stroke="black" points="133,-910.5 374,-910.5"/>
<text text-anchor="start" x="141" y="-893.2" font-family="Times,serif" font-size="14.00" fill="#000000">args=(</text>
<text text-anchor="middle" x="253.5" y="-876.7" font-family="Times,serif" font-size="14.00" fill="#000000">[1, 1],</text>
<text text-anchor="middle" x="253.5" y="-860.2" font-family="Times,serif" font-size="14.00" fill="#000000">[0, 0],</text>
<text text-anchor="middle" x="253.5" y="-843.7" font-family="Times,serif" font-size="14.00" fill="#000000">[1, 1],</text>
<text text-anchor="middle" x="253.5" y="-827.2" font-family="Times,serif" font-size="14.00" fill="#000000">False,</text>
<text text-anchor="middle" x="253.5" y="-810.7" font-family="Times,serif" font-size="14.00" fill="#000000">[0, 0],</text>
<text text-anchor="middle" x="253.5" y="-794.2" font-family="Times,serif" font-size="14.00" fill="#000000">1,</text>
<text text-anchor="start" x="141" y="-777.7" font-family="Times,serif" font-size="14.00" fill="#000000">)</text>
<polyline fill="none" stroke="black" points="133,-770.5 374,-770.5"/>
<text text-anchor="middle" x="253.5" y="-753.2" font-family="Times,serif" font-size="14.00" fill="#000000">num_users=2</text>
</g>
<!-- primals_1&#45;&gt;convolution -->
<g id="edge1" class="edge">
<title>primals_1&#45;&gt;convolution</title>
<path fill="none" stroke="black" d="M111.05,-1020.63C119.07,-1011.93 127.76,-1002.5 136.75,-992.74"/>
<polygon fill="black" stroke="black" points="139.14,-995.31 143.34,-985.58 133.99,-990.57 139.14,-995.31"/>
</g>
<!-- output -->
<g id="node18" class="node">
<title>output</title>
<path fill="PowderBlue" stroke="black" d="M480.25,-0.5C480.25,-0.5 560.75,-0.5 560.75,-0.5 566.75,-0.5 572.75,-6.5 572.75,-12.5 572.75,-12.5 572.75,-86.5 572.75,-86.5 572.75,-92.5 566.75,-98.5 560.75,-98.5 560.75,-98.5 480.25,-98.5 480.25,-98.5 474.25,-98.5 468.25,-92.5 468.25,-86.5 468.25,-86.5 468.25,-12.5 468.25,-12.5 468.25,-6.5 474.25,-0.5 480.25,-0.5"/>
<text text-anchor="middle" x="520.5" y="-81.2" font-family="Times,serif" font-size="14.00" fill="#000000">name=%output</text>
<polyline fill="none" stroke="black" points="468.25,-74 572.75,-74"/>
<text text-anchor="middle" x="520.5" y="-56.7" font-family="Times,serif" font-size="14.00" fill="#000000">op_code=output</text>
<polyline fill="none" stroke="black" points="468.25,-49.5 572.75,-49.5"/>
<text text-anchor="middle" x="520.5" y="-32.2" font-family="Times,serif" font-size="14.00" fill="#000000">target=output</text>
<polyline fill="none" stroke="black" points="468.25,-25 572.75,-25"/>
<text text-anchor="middle" x="520.5" y="-7.7" font-family="Times,serif" font-size="14.00" fill="#000000">num_users=0</text>
</g>
<!-- primals_1&#45;&gt;output -->
<g id="edge2" class="edge">
<title>primals_1&#45;&gt;output</title>
<path fill="none" stroke="black" d="M66.5,-1020.7C66.5,-937.85 66.5,-763.29 66.5,-615.75 66.5,-615.75 66.5,-615.75 66.5,-404.75 66.5,-284.43 9.16,-224.57 89.5,-135 137.52,-81.46 348.77,-60.95 456.63,-53.85"/>
<polygon fill="black" stroke="black" points="456.73,-57.35 466.49,-53.23 456.29,-50.37 456.73,-57.35"/>
</g>
<!-- primals_2 -->
<g id="node2" class="node">
<title>primals_2</title>
<path fill="AliceBlue" stroke="black" d="M314,-1021C314,-1021 423,-1021 423,-1021 429,-1021 435,-1027 435,-1033 435,-1033 435,-1107 435,-1107 435,-1113 429,-1119 423,-1119 423,-1119 314,-1119 314,-1119 308,-1119 302,-1113 302,-1107 302,-1107 302,-1033 302,-1033 302,-1027 308,-1021 314,-1021"/>
<text text-anchor="middle" x="368.5" y="-1101.7" font-family="Times,serif" font-size="14.00" fill="#000000">name=%primals_2</text>
<polyline fill="none" stroke="black" points="302,-1094.5 435,-1094.5"/>
<text text-anchor="middle" x="368.5" y="-1077.2" font-family="Times,serif" font-size="14.00" fill="#000000">op_code=placeholder</text>
<polyline fill="none" stroke="black" points="302,-1070 435,-1070"/>
<text text-anchor="middle" x="368.5" y="-1052.7" font-family="Times,serif" font-size="14.00" fill="#000000">target=primals_2</text>
<polyline fill="none" stroke="black" points="302,-1045.5 435,-1045.5"/>
<text text-anchor="middle" x="368.5" y="-1028.2" font-family="Times,serif" font-size="14.00" fill="#000000">num_users=1</text>
</g>
<!-- primals_2&#45;&gt;convolution -->
<g id="edge3" class="edge">
<title>primals_2&#45;&gt;convolution</title>
<path fill="none" stroke="black" d="M341.1,-1020.63C336.42,-1012.37 331.36,-1003.44 326.13,-994.2"/>
<polygon fill="black" stroke="black" points="329.33,-992.76 321.36,-985.79 323.24,-996.21 329.33,-992.76"/>
</g>
<!-- primals_3 -->
<g id="node3" class="node">
<title>primals_3</title>
<path fill="AliceBlue" stroke="black" d="M404,-816C404,-816 513,-816 513,-816 519,-816 525,-822 525,-828 525,-828 525,-902 525,-902 525,-908 519,-914 513,-914 513,-914 404,-914 404,-914 398,-914 392,-908 392,-902 392,-902 392,-828 392,-828 392,-822 398,-816 404,-816"/>
<text text-anchor="middle" x="458.5" y="-896.7" font-family="Times,serif" font-size="14.00" fill="#000000">name=%primals_3</text>
<polyline fill="none" stroke="black" points="392,-889.5 525,-889.5"/>
<text text-anchor="middle" x="458.5" y="-872.2" font-family="Times,serif" font-size="14.00" fill="#000000">op_code=placeholder</text>
<polyline fill="none" stroke="black" points="392,-865 525,-865"/>
<text text-anchor="middle" x="458.5" y="-847.7" font-family="Times,serif" font-size="14.00" fill="#000000">target=primals_3</text>
<polyline fill="none" stroke="black" points="392,-840.5 525,-840.5"/>
<text text-anchor="middle" x="458.5" y="-823.2" font-family="Times,serif" font-size="14.00" fill="#000000">num_users=2</text>
</g>
<!-- _native_batch_norm_legit_functional -->
<g id="node11" class="node">
<title>_native_batch_norm_legit_functional</title>
<path fill="#ffe1ff" stroke="black" d="M577.25,-520.5C577.25,-520.5 933.75,-520.5 933.75,-520.5 939.75,-520.5 945.75,-526.5 945.75,-532.5 945.75,-532.5 945.75,-697 945.75,-697 945.75,-703 939.75,-709 933.75,-709 933.75,-709 577.25,-709 577.25,-709 571.25,-709 565.25,-703 565.25,-697 565.25,-697 565.25,-532.5 565.25,-532.5 565.25,-526.5 571.25,-520.5 577.25,-520.5"/>
<text text-anchor="middle" x="755.5" y="-691.7" font-family="Times,serif" font-size="14.00" fill="#000000">name=%_native_batch_norm_legit_functional</text>
<polyline fill="none" stroke="black" points="565.25,-684.5 945.75,-684.5"/>
<text text-anchor="middle" x="755.5" y="-667.2" font-family="Times,serif" font-size="14.00" fill="#000000">op_code=call_function</text>
<polyline fill="none" stroke="black" points="565.25,-660 945.75,-660"/>
<text text-anchor="middle" x="755.5" y="-642.7" font-family="Times,serif" font-size="14.00" fill="#000000">target=torch.ops.aten._native_batch_norm_legit_functional.default</text>
<polyline fill="none" stroke="black" points="565.25,-635.5 945.75,-635.5"/>
<text text-anchor="start" x="573.25" y="-618.2" font-family="Times,serif" font-size="14.00" fill="#000000">args=(</text>
<text text-anchor="middle" x="755.5" y="-601.7" font-family="Times,serif" font-size="14.00" fill="#000000">True,</text>
<text text-anchor="middle" x="755.5" y="-585.2" font-family="Times,serif" font-size="14.00" fill="#000000">0.1,</text>
<text text-anchor="middle" x="755.5" y="-568.7" font-family="Times,serif" font-size="14.00" fill="#000000">1e&#45;05,</text>
<text text-anchor="start" x="573.25" y="-552.2" font-family="Times,serif" font-size="14.00" fill="#000000">)</text>
<polyline fill="none" stroke="black" points="565.25,-545 945.75,-545"/>
<text text-anchor="middle" x="755.5" y="-527.7" font-family="Times,serif" font-size="14.00" fill="#000000">num_users=5</text>
</g>
<!-- primals_3&#45;&gt;_native_batch_norm_legit_functional -->
<g id="edge4" class="edge">
<title>primals_3&#45;&gt;_native_batch_norm_legit_functional</title>
<path fill="none" stroke="black" d="M482.65,-815.54C495.79,-792.45 513.62,-765.57 534.5,-745.5 545.21,-735.2 556.89,-725.38 569.1,-716.09"/>
<polygon fill="black" stroke="black" points="570.92,-719.1 576.86,-710.33 566.75,-713.48 570.92,-719.1"/>
</g>
<!-- primals_3&#45;&gt;output -->
<g id="edge5" class="edge">
<title>primals_3&#45;&gt;output</title>
<path fill="none" stroke="black" d="M428.02,-815.56C368.92,-721.27 243.36,-519.23 230.5,-484 203.8,-410.86 151.97,-196.67 199.5,-135 230.66,-94.58 372.34,-69.64 456.71,-58.11"/>
<polygon fill="black" stroke="black" points="457.02,-61.6 466.47,-56.81 456.09,-54.67 457.02,-61.6"/>
</g>
<!-- primals_4 -->
<g id="node4" class="node">
<title>primals_4</title>
<path fill="AliceBlue" stroke="black" d="M555,-816C555,-816 664,-816 664,-816 670,-816 676,-822 676,-828 676,-828 676,-902 676,-902 676,-908 670,-914 664,-914 664,-914 555,-914 555,-914 549,-914 543,-908 543,-902 543,-902 543,-828 543,-828 543,-822 549,-816 555,-816"/>
<text text-anchor="middle" x="609.5" y="-896.7" font-family="Times,serif" font-size="14.00" fill="#000000">name=%primals_4</text>
<polyline fill="none" stroke="black" points="543,-889.5 676,-889.5"/>
<text text-anchor="middle" x="609.5" y="-872.2" font-family="Times,serif" font-size="14.00" fill="#000000">op_code=placeholder</text>
<polyline fill="none" stroke="black" points="543,-865 676,-865"/>
<text text-anchor="middle" x="609.5" y="-847.7" font-family="Times,serif" font-size="14.00" fill="#000000">target=primals_4</text>
<polyline fill="none" stroke="black" points="543,-840.5 676,-840.5"/>
<text text-anchor="middle" x="609.5" y="-823.2" font-family="Times,serif" font-size="14.00" fill="#000000">num_users=1</text>
</g>
<!-- primals_4&#45;&gt;_native_batch_norm_legit_functional -->
<g id="edge6" class="edge">
<title>primals_4&#45;&gt;_native_batch_norm_legit_functional</title>
<path fill="none" stroke="black" d="M638,-815.55C654.16,-788.06 675.03,-752.58 694.69,-719.15"/>
<polygon fill="black" stroke="black" points="697.65,-721.02 699.7,-710.63 691.61,-717.47 697.65,-721.02"/>
</g>
<!-- primals_5 -->
<g id="node5" class="node">
<title>primals_5</title>
<path fill="AliceBlue" stroke="black" d="M706,-816C706,-816 815,-816 815,-816 821,-816 827,-822 827,-828 827,-828 827,-902 827,-902 827,-908 821,-914 815,-914 815,-914 706,-914 706,-914 700,-914 694,-908 694,-902 694,-902 694,-828 694,-828 694,-822 700,-816 706,-816"/>
<text text-anchor="middle" x="760.5" y="-896.7" font-family="Times,serif" font-size="14.00" fill="#000000">name=%primals_5</text>
<polyline fill="none" stroke="black" points="694,-889.5 827,-889.5"/>
<text text-anchor="middle" x="760.5" y="-872.2" font-family="Times,serif" font-size="14.00" fill="#000000">op_code=placeholder</text>
<polyline fill="none" stroke="black" points="694,-865 827,-865"/>
<text text-anchor="middle" x="760.5" y="-847.7" font-family="Times,serif" font-size="14.00" fill="#000000">target=primals_5</text>
<polyline fill="none" stroke="black" points="694,-840.5 827,-840.5"/>
<text text-anchor="middle" x="760.5" y="-823.2" font-family="Times,serif" font-size="14.00" fill="#000000">num_users=1</text>
</g>
<!-- primals_5&#45;&gt;_native_batch_norm_legit_functional -->
<g id="edge7" class="edge">
<title>primals_5&#45;&gt;_native_batch_norm_legit_functional</title>
<path fill="none" stroke="black" d="M759.52,-815.55C758.98,-788.42 758.27,-753.49 757.61,-720.44"/>
<polygon fill="black" stroke="black" points="761.12,-720.76 757.42,-710.84 754.12,-720.91 761.12,-720.76"/>
</g>
<!-- primals_6 -->
<g id="node6" class="node">
<title>primals_6</title>
<path fill="AliceBlue" stroke="black" d="M857,-816C857,-816 966,-816 966,-816 972,-816 978,-822 978,-828 978,-828 978,-902 978,-902 978,-908 972,-914 966,-914 966,-914 857,-914 857,-914 851,-914 845,-908 845,-902 845,-902 845,-828 845,-828 845,-822 851,-816 857,-816"/>
<text text-anchor="middle" x="911.5" y="-896.7" font-family="Times,serif" font-size="14.00" fill="#000000">name=%primals_6</text>
<polyline fill="none" stroke="black" points="845,-889.5 978,-889.5"/>
<text text-anchor="middle" x="911.5" y="-872.2" font-family="Times,serif" font-size="14.00" fill="#000000">op_code=placeholder</text>
<polyline fill="none" stroke="black" points="845,-865 978,-865"/>
<text text-anchor="middle" x="911.5" y="-847.7" font-family="Times,serif" font-size="14.00" fill="#000000">target=primals_6</text>
<polyline fill="none" stroke="black" points="845,-840.5 978,-840.5"/>
<text text-anchor="middle" x="911.5" y="-823.2" font-family="Times,serif" font-size="14.00" fill="#000000">num_users=1</text>
</g>
<!-- primals_6&#45;&gt;_native_batch_norm_legit_functional -->
<g id="edge8" class="edge">
<title>primals_6&#45;&gt;_native_batch_norm_legit_functional</title>
<path fill="none" stroke="black" d="M881.05,-815.55C863.71,-787.94 841.29,-752.27 820.21,-718.72"/>
<polygon fill="black" stroke="black" points="823.39,-717.21 815.11,-710.61 817.46,-720.93 823.39,-717.21"/>
</g>
<!-- primals_7 -->
<g id="node7" class="node">
<title>primals_7</title>
<path fill="AliceBlue" stroke="black" d="M252,-356.75C252,-356.75 361,-356.75 361,-356.75 367,-356.75 373,-362.75 373,-368.75 373,-368.75 373,-442.75 373,-442.75 373,-448.75 367,-454.75 361,-454.75 361,-454.75 252,-454.75 252,-454.75 246,-454.75 240,-448.75 240,-442.75 240,-442.75 240,-368.75 240,-368.75 240,-362.75 246,-356.75 252,-356.75"/>
<text text-anchor="middle" x="306.5" y="-437.45" font-family="Times,serif" font-size="14.00" fill="#000000">name=%primals_7</text>
<polyline fill="none" stroke="black" points="240,-430.25 373,-430.25"/>
<text text-anchor="middle" x="306.5" y="-412.95" font-family="Times,serif" font-size="14.00" fill="#000000">op_code=placeholder</text>
<polyline fill="none" stroke="black" points="240,-405.75 373,-405.75"/>
<text text-anchor="middle" x="306.5" y="-388.45" font-family="Times,serif" font-size="14.00" fill="#000000">target=primals_7</text>
<polyline fill="none" stroke="black" points="240,-381.25 373,-381.25"/>
<text text-anchor="middle" x="306.5" y="-363.95" font-family="Times,serif" font-size="14.00" fill="#000000">num_users=1</text>
</g>
<!-- add -->
<g id="node10" class="node">
<title>add</title>
<path fill="#ffe4e1" stroke="black" d="M220.5,-135.5C220.5,-135.5 392.5,-135.5 392.5,-135.5 398.5,-135.5 404.5,-141.5 404.5,-147.5 404.5,-147.5 404.5,-279 404.5,-279 404.5,-285 398.5,-291 392.5,-291 392.5,-291 220.5,-291 220.5,-291 214.5,-291 208.5,-285 208.5,-279 208.5,-279 208.5,-147.5 208.5,-147.5 208.5,-141.5 214.5,-135.5 220.5,-135.5"/>
<text text-anchor="middle" x="306.5" y="-273.7" font-family="Times,serif" font-size="14.00" fill="#000000">name=%add</text>
<polyline fill="none" stroke="black" points="208.5,-266.5 404.5,-266.5"/>
<text text-anchor="middle" x="306.5" y="-249.2" font-family="Times,serif" font-size="14.00" fill="#000000">op_code=call_function</text>
<polyline fill="none" stroke="black" points="208.5,-242 404.5,-242"/>
<text text-anchor="middle" x="306.5" y="-224.7" font-family="Times,serif" font-size="14.00" fill="#000000">target=torch.ops.aten.add.Tensor</text>
<polyline fill="none" stroke="black" points="208.5,-217.5 404.5,-217.5"/>
<text text-anchor="start" x="216.5" y="-200.2" font-family="Times,serif" font-size="14.00" fill="#000000">args=(</text>
<text text-anchor="middle" x="306.5" y="-183.7" font-family="Times,serif" font-size="14.00" fill="#000000">1,</text>
<text text-anchor="start" x="216.5" y="-167.2" font-family="Times,serif" font-size="14.00" fill="#000000">)</text>
<polyline fill="none" stroke="black" points="208.5,-160 404.5,-160"/>
<text text-anchor="middle" x="306.5" y="-142.7" font-family="Times,serif" font-size="14.00" fill="#000000">num_users=1</text>
</g>
<!-- primals_7&#45;&gt;add -->
<g id="edge9" class="edge">
<title>primals_7&#45;&gt;add</title>
<path fill="none" stroke="black" d="M306.5,-356.68C306.5,-340.25 306.5,-321.31 306.5,-302.72"/>
<polygon fill="black" stroke="black" points="310,-302.73 306.5,-292.73 303,-302.73 310,-302.73"/>
</g>
<!-- primals_8 -->
<g id="node8" class="node">
<title>primals_8</title>
<path fill="AliceBlue" stroke="black" d="M163,-1021C163,-1021 272,-1021 272,-1021 278,-1021 284,-1027 284,-1033 284,-1033 284,-1107 284,-1107 284,-1113 278,-1119 272,-1119 272,-1119 163,-1119 163,-1119 157,-1119 151,-1113 151,-1107 151,-1107 151,-1033 151,-1033 151,-1027 157,-1021 163,-1021"/>
<text text-anchor="middle" x="217.5" y="-1101.7" font-family="Times,serif" font-size="14.00" fill="#000000">name=%primals_8</text>
<polyline fill="none" stroke="black" points="151,-1094.5 284,-1094.5"/>
<text text-anchor="middle" x="217.5" y="-1077.2" font-family="Times,serif" font-size="14.00" fill="#000000">op_code=placeholder</text>
<polyline fill="none" stroke="black" points="151,-1070 284,-1070"/>
<text text-anchor="middle" x="217.5" y="-1052.7" font-family="Times,serif" font-size="14.00" fill="#000000">target=primals_8</text>
<polyline fill="none" stroke="black" points="151,-1045.5 284,-1045.5"/>
<text text-anchor="middle" x="217.5" y="-1028.2" font-family="Times,serif" font-size="14.00" fill="#000000">num_users=2</text>
</g>
<!-- primals_8&#45;&gt;convolution -->
<g id="edge10" class="edge">
<title>primals_8&#45;&gt;convolution</title>
<path fill="none" stroke="black" d="M226.08,-1020.63C227.47,-1012.8 228.96,-1004.38 230.51,-995.66"/>
<polygon fill="black" stroke="black" points="233.93,-996.42 232.23,-985.96 227.03,-995.19 233.93,-996.42"/>
</g>
<!-- primals_8&#45;&gt;output -->
<g id="edge11" class="edge">
<title>primals_8&#45;&gt;output</title>
<path fill="none" stroke="black" d="M150.74,-1021.48C139.85,-1010.6 130.02,-998.17 123.5,-984.5 52.86,-836.38 104.5,-779.86 104.5,-615.75 104.5,-615.75 104.5,-615.75 104.5,-404.75 104.5,-283.68 60.38,-223.97 142.5,-135 184.3,-89.71 360.03,-65.96 456.47,-56.12"/>
<polygon fill="black" stroke="black" points="456.72,-59.61 466.32,-55.14 456.02,-52.64 456.72,-59.61"/>
</g>
<!-- convolution&#45;&gt;_native_batch_norm_legit_functional -->
<g id="edge12" class="edge">
<title>convolution&#45;&gt;_native_batch_norm_legit_functional</title>
<path fill="none" stroke="black" d="M374.31,-750.6C377.03,-748.84 379.76,-747.14 382.5,-745.5 435.13,-714.03 496.51,-688.72 554.1,-669.09"/>
<polygon fill="black" stroke="black" points="555.01,-672.48 563.37,-665.98 552.78,-665.85 555.01,-672.48"/>
</g>
<!-- convolution&#45;&gt;output -->
<g id="edge13" class="edge">
<title>convolution&#45;&gt;output</title>
<path fill="none" stroke="black" d="M221.6,-745.68C175.74,-563.89 104.21,-227.2 176.5,-135 210.63,-91.48 366.61,-67.4 456.38,-56.93"/>
<polygon fill="black" stroke="black" points="456.74,-60.41 466.28,-55.8 455.95,-53.45 456.74,-60.41"/>
</g>
<!-- add&#45;&gt;output -->
<g id="edge14" class="edge">
<title>add&#45;&gt;output</title>
<path fill="none" stroke="black" d="M404.73,-138C423.09,-124.13 441.79,-109.99 458.66,-97.24"/>
<polygon fill="black" stroke="black" points="460.75,-100.05 466.62,-91.22 456.53,-94.46 460.75,-100.05"/>
</g>
<!-- getitem -->
<g id="node12" class="node">
<title>getitem</title>
<path fill="#fff0f5" stroke="black" d="M583,-328C583,-328 710,-328 710,-328 716,-328 722,-334 722,-340 722,-340 722,-471.5 722,-471.5 722,-477.5 716,-483.5 710,-483.5 710,-483.5 583,-483.5 583,-483.5 577,-483.5 571,-477.5 571,-471.5 571,-471.5 571,-340 571,-340 571,-334 577,-328 583,-328"/>
<text text-anchor="middle" x="646.5" y="-466.2" font-family="Times,serif" font-size="14.00" fill="#000000">name=%getitem</text>
<polyline fill="none" stroke="black" points="571,-459 722,-459"/>
<text text-anchor="middle" x="646.5" y="-441.7" font-family="Times,serif" font-size="14.00" fill="#000000">op_code=call_function</text>
<polyline fill="none" stroke="black" points="571,-434.5 722,-434.5"/>
<text text-anchor="middle" x="646.5" y="-417.2" font-family="Times,serif" font-size="14.00" fill="#000000">target=_operator.getitem</text>
<polyline fill="none" stroke="black" points="571,-410 722,-410"/>
<text text-anchor="start" x="579" y="-392.7" font-family="Times,serif" font-size="14.00" fill="#000000">args=(</text>
<text text-anchor="middle" x="646.5" y="-376.2" font-family="Times,serif" font-size="14.00" fill="#000000">0,</text>
<text text-anchor="start" x="579" y="-359.7" font-family="Times,serif" font-size="14.00" fill="#000000">)</text>
<polyline fill="none" stroke="black" points="571,-352.5 722,-352.5"/>
<text text-anchor="middle" x="646.5" y="-335.2" font-family="Times,serif" font-size="14.00" fill="#000000">num_users=2</text>
</g>
<!-- _native_batch_norm_legit_functional&#45;&gt;getitem -->
<g id="edge15" class="edge">
<title>_native_batch_norm_legit_functional&#45;&gt;getitem</title>
<path fill="none" stroke="black" d="M706.26,-520.24C701.64,-511.46 696.97,-502.59 692.38,-493.87"/>
<polygon fill="black" stroke="black" points="695.5,-492.28 687.74,-485.07 689.3,-495.55 695.5,-492.28"/>
</g>
<!-- getitem_1 -->
<g id="node13" class="node">
<title>getitem_1</title>
<path fill="#fff0f5" stroke="black" d="M687,-135.5C687,-135.5 814,-135.5 814,-135.5 820,-135.5 826,-141.5 826,-147.5 826,-147.5 826,-279 826,-279 826,-285 820,-291 814,-291 814,-291 687,-291 687,-291 681,-291 675,-285 675,-279 675,-279 675,-147.5 675,-147.5 675,-141.5 681,-135.5 687,-135.5"/>
<text text-anchor="middle" x="750.5" y="-273.7" font-family="Times,serif" font-size="14.00" fill="#000000">name=%getitem_1</text>
<polyline fill="none" stroke="black" points="675,-266.5 826,-266.5"/>
<text text-anchor="middle" x="750.5" y="-249.2" font-family="Times,serif" font-size="14.00" fill="#000000">op_code=call_function</text>
<polyline fill="none" stroke="black" points="675,-242 826,-242"/>
<text text-anchor="middle" x="750.5" y="-224.7" font-family="Times,serif" font-size="14.00" fill="#000000">target=_operator.getitem</text>
<polyline fill="none" stroke="black" points="675,-217.5 826,-217.5"/>
<text text-anchor="start" x="683" y="-200.2" font-family="Times,serif" font-size="14.00" fill="#000000">args=(</text>
<text text-anchor="middle" x="750.5" y="-183.7" font-family="Times,serif" font-size="14.00" fill="#000000">1,</text>
<text text-anchor="start" x="683" y="-167.2" font-family="Times,serif" font-size="14.00" fill="#000000">)</text>
<polyline fill="none" stroke="black" points="675,-160 826,-160"/>
<text text-anchor="middle" x="750.5" y="-142.7" font-family="Times,serif" font-size="14.00" fill="#000000">num_users=1</text>
</g>
<!-- _native_batch_norm_legit_functional&#45;&gt;getitem_1 -->
<g id="edge16" class="edge">
<title>_native_batch_norm_legit_functional&#45;&gt;getitem_1</title>
<path fill="none" stroke="black" d="M754.33,-520.08C753.51,-454.38 752.41,-367.1 751.61,-302.61"/>
<polygon fill="black" stroke="black" points="755.11,-302.71 751.48,-292.76 748.11,-302.8 755.11,-302.71"/>
</g>
<!-- getitem_2 -->
<g id="node14" class="node">
<title>getitem_2</title>
<path fill="#fff0f5" stroke="black" d="M856,-135.5C856,-135.5 983,-135.5 983,-135.5 989,-135.5 995,-141.5 995,-147.5 995,-147.5 995,-279 995,-279 995,-285 989,-291 983,-291 983,-291 856,-291 856,-291 850,-291 844,-285 844,-279 844,-279 844,-147.5 844,-147.5 844,-141.5 850,-135.5 856,-135.5"/>
<text text-anchor="middle" x="919.5" y="-273.7" font-family="Times,serif" font-size="14.00" fill="#000000">name=%getitem_2</text>
<polyline fill="none" stroke="black" points="844,-266.5 995,-266.5"/>
<text text-anchor="middle" x="919.5" y="-249.2" font-family="Times,serif" font-size="14.00" fill="#000000">op_code=call_function</text>
<polyline fill="none" stroke="black" points="844,-242 995,-242"/>
<text text-anchor="middle" x="919.5" y="-224.7" font-family="Times,serif" font-size="14.00" fill="#000000">target=_operator.getitem</text>
<polyline fill="none" stroke="black" points="844,-217.5 995,-217.5"/>
<text text-anchor="start" x="852" y="-200.2" font-family="Times,serif" font-size="14.00" fill="#000000">args=(</text>
<text text-anchor="middle" x="919.5" y="-183.7" font-family="Times,serif" font-size="14.00" fill="#000000">2,</text>
<text text-anchor="start" x="852" y="-167.2" font-family="Times,serif" font-size="14.00" fill="#000000">)</text>
<polyline fill="none" stroke="black" points="844,-160 995,-160"/>
<text text-anchor="middle" x="919.5" y="-142.7" font-family="Times,serif" font-size="14.00" fill="#000000">num_users=1</text>
</g>
<!-- _native_batch_norm_legit_functional&#45;&gt;getitem_2 -->
<g id="edge17" class="edge">
<title>_native_batch_norm_legit_functional&#45;&gt;getitem_2</title>
<path fill="none" stroke="black" d="M766.83,-520.19C776.44,-449.95 791.37,-360.46 808.5,-327.5 812.96,-318.92 823.32,-306.53 836.01,-293.06"/>
<polygon fill="black" stroke="black" points="838.28,-295.76 842.68,-286.12 833.23,-290.91 838.28,-295.76"/>
</g>
<!-- getitem_3 -->
<g id="node15" class="node">
<title>getitem_3</title>
<path fill="#fff0f5" stroke="black" d="M829,-328C829,-328 956,-328 956,-328 962,-328 968,-334 968,-340 968,-340 968,-471.5 968,-471.5 968,-477.5 962,-483.5 956,-483.5 956,-483.5 829,-483.5 829,-483.5 823,-483.5 817,-477.5 817,-471.5 817,-471.5 817,-340 817,-340 817,-334 823,-328 829,-328"/>
<text text-anchor="middle" x="892.5" y="-466.2" font-family="Times,serif" font-size="14.00" fill="#000000">name=%getitem_3</text>
<polyline fill="none" stroke="black" points="817,-459 968,-459"/>
<text text-anchor="middle" x="892.5" y="-441.7" font-family="Times,serif" font-size="14.00" fill="#000000">op_code=call_function</text>
<polyline fill="none" stroke="black" points="817,-434.5 968,-434.5"/>
<text text-anchor="middle" x="892.5" y="-417.2" font-family="Times,serif" font-size="14.00" fill="#000000">target=_operator.getitem</text>
<polyline fill="none" stroke="black" points="817,-410 968,-410"/>
<text text-anchor="start" x="825" y="-392.7" font-family="Times,serif" font-size="14.00" fill="#000000">args=(</text>
<text text-anchor="middle" x="892.5" y="-376.2" font-family="Times,serif" font-size="14.00" fill="#000000">3,</text>
<text text-anchor="start" x="825" y="-359.7" font-family="Times,serif" font-size="14.00" fill="#000000">)</text>
<polyline fill="none" stroke="black" points="817,-352.5 968,-352.5"/>
<text text-anchor="middle" x="892.5" y="-335.2" font-family="Times,serif" font-size="14.00" fill="#000000">num_users=1</text>
</g>
<!-- _native_batch_norm_legit_functional&#45;&gt;getitem_3 -->
<g id="edge18" class="edge">
<title>_native_batch_norm_legit_functional&#45;&gt;getitem_3</title>
<path fill="none" stroke="black" d="M817.39,-520.24C823.32,-511.27 829.33,-502.2 835.22,-493.3"/>
<polygon fill="black" stroke="black" points="838.12,-495.26 840.72,-484.99 832.28,-491.4 838.12,-495.26"/>
</g>
<!-- getitem_4 -->
<g id="node16" class="node">
<title>getitem_4</title>
<path fill="#fff0f5" stroke="black" d="M998,-328C998,-328 1125,-328 1125,-328 1131,-328 1137,-334 1137,-340 1137,-340 1137,-471.5 1137,-471.5 1137,-477.5 1131,-483.5 1125,-483.5 1125,-483.5 998,-483.5 998,-483.5 992,-483.5 986,-477.5 986,-471.5 986,-471.5 986,-340 986,-340 986,-334 992,-328 998,-328"/>
<text text-anchor="middle" x="1061.5" y="-466.2" font-family="Times,serif" font-size="14.00" fill="#000000">name=%getitem_4</text>
<polyline fill="none" stroke="black" points="986,-459 1137,-459"/>
<text text-anchor="middle" x="1061.5" y="-441.7" font-family="Times,serif" font-size="14.00" fill="#000000">op_code=call_function</text>
<polyline fill="none" stroke="black" points="986,-434.5 1137,-434.5"/>
<text text-anchor="middle" x="1061.5" y="-417.2" font-family="Times,serif" font-size="14.00" fill="#000000">target=_operator.getitem</text>
<polyline fill="none" stroke="black" points="986,-410 1137,-410"/>
<text text-anchor="start" x="994" y="-392.7" font-family="Times,serif" font-size="14.00" fill="#000000">args=(</text>
<text text-anchor="middle" x="1061.5" y="-376.2" font-family="Times,serif" font-size="14.00" fill="#000000">4,</text>
<text text-anchor="start" x="994" y="-359.7" font-family="Times,serif" font-size="14.00" fill="#000000">)</text>
<polyline fill="none" stroke="black" points="986,-352.5 1137,-352.5"/>
<text text-anchor="middle" x="1061.5" y="-335.2" font-family="Times,serif" font-size="14.00" fill="#000000">num_users=1</text>
</g>
<!-- _native_batch_norm_legit_functional&#45;&gt;getitem_4 -->
<g id="edge19" class="edge">
<title>_native_batch_norm_legit_functional&#45;&gt;getitem_4</title>
<path fill="none" stroke="black" d="M924.64,-520.07C940.57,-509.92 956.31,-499.36 976.64,-484.46"/>
<polygon fill="black" stroke="black" points="978.47,-487.45 984.43,-478.69 974.31,-481.83 978.47,-487.45"/>
</g>
<!-- silu -->
<g id="node17" class="node">
<title>silu</title>
<path fill="#ffe7ba" stroke="black" d="M434.5,-164.25C434.5,-164.25 606.5,-164.25 606.5,-164.25 612.5,-164.25 618.5,-170.25 618.5,-176.25 618.5,-176.25 618.5,-250.25 618.5,-250.25 618.5,-256.25 612.5,-262.25 606.5,-262.25 606.5,-262.25 434.5,-262.25 434.5,-262.25 428.5,-262.25 422.5,-256.25 422.5,-250.25 422.5,-250.25 422.5,-176.25 422.5,-176.25 422.5,-170.25 428.5,-164.25 434.5,-164.25"/>
<text text-anchor="middle" x="520.5" y="-244.95" font-family="Times,serif" font-size="14.00" fill="#000000">name=%silu</text>
<polyline fill="none" stroke="black" points="422.5,-237.75 618.5,-237.75"/>
<text text-anchor="middle" x="520.5" y="-220.45" font-family="Times,serif" font-size="14.00" fill="#000000">op_code=call_function</text>
<polyline fill="none" stroke="black" points="422.5,-213.25 618.5,-213.25"/>
<text text-anchor="middle" x="520.5" y="-195.95" font-family="Times,serif" font-size="14.00" fill="#000000">target=torch.ops.aten.silu.default</text>
<polyline fill="none" stroke="black" points="422.5,-188.75 618.5,-188.75"/>
<text text-anchor="middle" x="520.5" y="-171.45" font-family="Times,serif" font-size="14.00" fill="#000000">num_users=1</text>
</g>
<!-- getitem&#45;&gt;silu -->
<g id="edge20" class="edge">
<title>getitem&#45;&gt;silu</title>
<path fill="none" stroke="black" d="M595.43,-327.54C583.17,-309.01 570.29,-289.52 558.73,-272.04"/>
<polygon fill="black" stroke="black" points="561.72,-270.23 553.29,-263.82 555.88,-274.09 561.72,-270.23"/>
</g>
<!-- getitem&#45;&gt;output -->
<g id="edge21" class="edge">
<title>getitem&#45;&gt;output</title>
<path fill="none" stroke="black" d="M657.05,-327.57C661.11,-271.03 658.77,-194.14 627.5,-135 617.09,-115.31 599.88,-98.68 582.27,-85.52"/>
<polygon fill="black" stroke="black" points="584.46,-82.78 574.29,-79.83 580.4,-88.48 584.46,-82.78"/>
</g>
<!-- getitem_1&#45;&gt;output -->
<g id="edge22" class="edge">
<title>getitem_1&#45;&gt;output</title>
<path fill="none" stroke="black" d="M674.61,-145.61C669.9,-141.94 665.17,-138.38 660.5,-135 635.93,-117.23 607.49,-99.57 582.68,-85.04"/>
<polygon fill="black" stroke="black" points="584.73,-82.18 574.32,-80.18 581.21,-88.23 584.73,-82.18"/>
</g>
<!-- getitem_2&#45;&gt;output -->
<g id="edge23" class="edge">
<title>getitem_2&#45;&gt;output</title>
<path fill="none" stroke="black" d="M843.51,-139.73C840.86,-138.06 838.19,-136.48 835.5,-135 755.07,-90.76 650.18,-68.67 584.06,-58.41"/>
<polygon fill="black" stroke="black" points="584.9,-55 574.49,-56.97 583.86,-61.92 584.9,-55"/>
</g>
<!-- getitem_3&#45;&gt;output -->
<g id="edge24" class="edge">
<title>getitem_3&#45;&gt;output</title>
<path fill="none" stroke="black" d="M968.21,-336.69C985.36,-319.46 999.9,-302.69 1004.5,-291.5 1030.94,-227.17 1049.25,-188.24 1004.5,-135 951.58,-72.04 703.78,-55.99 584.7,-51.9"/>
<polygon fill="black" stroke="black" points="584.87,-48.4 574.76,-51.58 584.64,-55.4 584.87,-48.4"/>
</g>
<!-- getitem_4&#45;&gt;output -->
<g id="edge25" class="edge">
<title>getitem_4&#45;&gt;output</title>
<path fill="none" stroke="black" d="M1075.67,-327.64C1082,-267.3 1079.32,-185.43 1031.5,-135 971.34,-71.55 707.68,-55.74 584.43,-51.8"/>
<polygon fill="black" stroke="black" points="584.57,-48.3 574.47,-51.5 584.36,-55.3 584.57,-48.3"/>
</g>
<!-- silu&#45;&gt;output -->
<g id="edge26" class="edge">
<title>silu&#45;&gt;output</title>
<path fill="none" stroke="black" d="M520.5,-164.16C520.5,-147.28 520.5,-128.1 520.5,-110.37"/>
<polygon fill="black" stroke="black" points="524,-110.48 520.5,-100.48 517,-110.48 524,-110.48"/>
</g>
</g>
</svg>
