<?xml version="1.0" encoding="UTF-8" standalone="no"?>
<!DOCTYPE svg PUBLIC "-//W3C//DTD SVG 1.1//EN"
 "http://www.w3.org/Graphics/SVG/1.1/DTD/svg11.dtd">
<!-- Generated by graphviz version 8.0.5 (20230430.1635)
 -->
<!-- Pages: 1 -->
<svg width="1035pt" height="1340pt"
 viewBox="0.00 0.00 1034.84 1340.00" xmlns="http://www.w3.org/2000/svg" xmlns:xlink="http://www.w3.org/1999/xlink">
<g id="graph0" class="graph" transform="scale(1 1) rotate(0) translate(4 1336)">
<polygon fill="white" stroke="none" points="-4,4 -4,-1336 1030.84,-1336 1030.84,4 -4,4"/>
<!-- aten.convolution.default_0 -->
<g id="node1" class="node">
<title>aten.convolution.default_0</title>
<ellipse fill="none" stroke="black" cx="450" cy="-1242" rx="101" ry="18"/>
<text text-anchor="middle" x="450" y="-1236.95" font-family="Times,serif" font-size="14.00">aten.convolution.default</text>
</g>
<!-- tensor_3 -->
<g id="node5" class="node">
<title>tensor_3</title>
<ellipse fill="none" stroke="black" cx="505" cy="-1170" rx="42.65" ry="18"/>
<text text-anchor="middle" x="505" y="-1164.95" font-family="Times,serif" font-size="14.00">tensor_3</text>
</g>
<!-- aten.convolution.default_0&#45;&gt;tensor_3 -->
<g id="edge4" class="edge">
<title>aten.convolution.default_0&#45;&gt;tensor_3</title>
<path fill="none" stroke="black" d="M463.6,-1223.7C470.15,-1215.35 478.14,-1205.18 485.34,-1196.02"/>
<polygon fill="black" stroke="black" points="488.51,-1198.65 491.94,-1188.62 483.01,-1194.32 488.51,-1198.65"/>
</g>
<!-- tensor_0 -->
<g id="node2" class="node">
<title>tensor_0</title>
<ellipse fill="none" stroke="black" cx="173" cy="-1314" rx="42.65" ry="18"/>
<text text-anchor="middle" x="173" y="-1308.95" font-family="Times,serif" font-size="14.00">tensor_0</text>
</g>
<!-- tensor_0&#45;&gt;aten.convolution.default_0 -->
<g id="edge1" class="edge">
<title>tensor_0&#45;&gt;aten.convolution.default_0</title>
<path fill="none" stroke="black" d="M208.93,-1303.92C252.84,-1292.82 328.06,-1273.81 382.82,-1259.98"/>
<polygon fill="black" stroke="black" points="383.65,-1263.13 392.49,-1257.28 381.93,-1256.34 383.65,-1263.13"/>
</g>
<!-- aten.convolution_backward.default_10 -->
<g id="node32" class="node">
<title>aten.convolution_backward.default_10</title>
<ellipse fill="none" stroke="black" cx="354" cy="-90" rx="141.43" ry="18"/>
<text text-anchor="middle" x="354" y="-84.95" font-family="Times,serif" font-size="14.00">aten.convolution_backward.default</text>
</g>
<!-- tensor_0&#45;&gt;aten.convolution_backward.default_10 -->
<g id="edge38" class="edge">
<title>tensor_0&#45;&gt;aten.convolution_backward.default_10</title>
<path fill="none" stroke="black" d="M139.64,-1302.59C89.37,-1284.57 0,-1242.5 0,-1171 0,-1171 0,-1171 0,-233 0,-175.54 162.68,-130.73 267.47,-107.82"/>
<polygon fill="black" stroke="black" points="268.02,-111.07 277.06,-105.54 266.55,-104.23 268.02,-111.07"/>
</g>
<!-- tensor_1 -->
<g id="node3" class="node">
<title>tensor_1</title>
<ellipse fill="none" stroke="black" cx="566" cy="-1314" rx="42.65" ry="18"/>
<text text-anchor="middle" x="566" y="-1308.95" font-family="Times,serif" font-size="14.00">tensor_1</text>
</g>
<!-- tensor_1&#45;&gt;aten.convolution.default_0 -->
<g id="edge2" class="edge">
<title>tensor_1&#45;&gt;aten.convolution.default_0</title>
<path fill="none" stroke="black" d="M542.25,-1298.67C526.33,-1289.06 505.05,-1276.22 486.94,-1265.29"/>
<polygon fill="black" stroke="black" points="489.17,-1261.95 478.8,-1259.78 485.56,-1267.94 489.17,-1261.95"/>
</g>
<!-- tensor_1&#45;&gt;aten.convolution_backward.default_10 -->
<g id="edge39" class="edge">
<title>tensor_1&#45;&gt;aten.convolution_backward.default_10</title>
<path fill="none" stroke="black" d="M568.63,-1295.56C572.43,-1268.82 579,-1216.06 579,-1171 579,-1171 579,-1171 579,-233 579,-186.27 560.02,-172.53 523,-144 501.28,-127.27 474.19,-115.76 448.11,-107.87"/>
<polygon fill="black" stroke="black" points="449.36,-104.3 438.78,-104.91 447.44,-111.03 449.36,-104.3"/>
</g>
<!-- tensor_2 -->
<g id="node4" class="node">
<title>tensor_2</title>
<ellipse fill="none" stroke="black" cx="450" cy="-1314" rx="42.65" ry="18"/>
<text text-anchor="middle" x="450" y="-1308.95" font-family="Times,serif" font-size="14.00">tensor_2</text>
</g>
<!-- tensor_2&#45;&gt;aten.convolution.default_0 -->
<g id="edge3" class="edge">
<title>tensor_2&#45;&gt;aten.convolution.default_0</title>
<path fill="none" stroke="black" d="M450,-1295.7C450,-1288.24 450,-1279.32 450,-1270.97"/>
<polygon fill="black" stroke="black" points="453.5,-1271.1 450,-1261.1 446.5,-1271.1 453.5,-1271.1"/>
</g>
<!-- aten.native_batch_norm.default_3 -->
<g id="node10" class="node">
<title>aten.native_batch_norm.default_3</title>
<ellipse fill="none" stroke="black" cx="322" cy="-1098" rx="128.63" ry="18"/>
<text text-anchor="middle" x="322" y="-1092.95" font-family="Times,serif" font-size="14.00">aten.native_batch_norm.default</text>
</g>
<!-- tensor_3&#45;&gt;aten.native_batch_norm.default_3 -->
<g id="edge8" class="edge">
<title>tensor_3&#45;&gt;aten.native_batch_norm.default_3</title>
<path fill="none" stroke="black" d="M474.37,-1157.28C447.29,-1146.92 407.18,-1131.58 374.91,-1119.24"/>
<polygon fill="black" stroke="black" points="376.33,-1115.65 365.73,-1115.35 373.82,-1122.19 376.33,-1115.65"/>
</g>
<!-- aten.native_batch_norm_backward.default_9 -->
<g id="node28" class="node">
<title>aten.native_batch_norm_backward.default_9</title>
<ellipse fill="none" stroke="black" cx="354" cy="-234" rx="169.07" ry="18"/>
<text text-anchor="middle" x="354" y="-228.95" font-family="Times,serif" font-size="14.00">aten.native_batch_norm_backward.default</text>
</g>
<!-- tensor_3&#45;&gt;aten.native_batch_norm_backward.default_9 -->
<g id="edge28" class="edge">
<title>tensor_3&#45;&gt;aten.native_batch_norm_backward.default_9</title>
<path fill="none" stroke="black" d="M512.29,-1151.87C522.8,-1125.53 541,-1073.29 541,-1027 541,-1027 541,-1027 541,-377 541,-314.67 474.3,-276.14 420.57,-255.22"/>
<polygon fill="black" stroke="black" points="421.95,-251.62 411.36,-251.39 419.49,-258.18 421.95,-251.62"/>
</g>
<!-- aten.add_.Tensor_1 -->
<g id="node6" class="node">
<title>aten.add_.Tensor_1</title>
<ellipse fill="none" stroke="black" cx="702" cy="-1314" rx="74.89" ry="18"/>
<text text-anchor="middle" x="702" y="-1308.95" font-family="Times,serif" font-size="14.00">aten.add_.Tensor</text>
</g>
<!-- tensor_4 -->
<g id="node7" class="node">
<title>tensor_4</title>
<ellipse fill="none" stroke="black" cx="702" cy="-1242" rx="42.65" ry="18"/>
<text text-anchor="middle" x="702" y="-1236.95" font-family="Times,serif" font-size="14.00">tensor_4</text>
</g>
<!-- aten.add_.Tensor_1&#45;&gt;tensor_4 -->
<g id="edge6" class="edge">
<title>aten.add_.Tensor_1&#45;&gt;tensor_4</title>
<path fill="none" stroke="black" d="M696.08,-1295.7C695.31,-1288.24 695.08,-1279.32 695.37,-1270.97"/>
<polygon fill="black" stroke="black" points="698.92,-1271.32 696.1,-1261.1 691.94,-1270.85 698.92,-1271.32"/>
</g>
<!-- tensor_4&#45;&gt;aten.add_.Tensor_1 -->
<g id="edge5" class="edge">
<title>tensor_4&#45;&gt;aten.add_.Tensor_1</title>
<path fill="none" stroke="black" d="M707.9,-1260.1C708.67,-1267.54 708.92,-1276.44 708.64,-1284.81"/>
<polygon fill="black" stroke="black" points="705.08,-1284.49 707.92,-1294.7 712.07,-1284.95 705.08,-1284.49"/>
</g>
<!-- aten.empty.memory_format_2 -->
<g id="node8" class="node">
<title>aten.empty.memory_format_2</title>
<ellipse fill="none" stroke="black" cx="911" cy="-1314" rx="115.84" ry="18"/>
<text text-anchor="middle" x="911" y="-1308.95" font-family="Times,serif" font-size="14.00">aten.empty.memory_format</text>
</g>
<!-- tensor_5 -->
<g id="node9" class="node">
<title>tensor_5</title>
<ellipse fill="none" stroke="black" cx="911" cy="-1242" rx="42.65" ry="18"/>
<text text-anchor="middle" x="911" y="-1236.95" font-family="Times,serif" font-size="14.00">tensor_5</text>
</g>
<!-- aten.empty.memory_format_2&#45;&gt;tensor_5 -->
<g id="edge7" class="edge">
<title>aten.empty.memory_format_2&#45;&gt;tensor_5</title>
<path fill="none" stroke="black" d="M911,-1295.7C911,-1288.24 911,-1279.32 911,-1270.97"/>
<polygon fill="black" stroke="black" points="914.5,-1271.1 911,-1261.1 907.5,-1271.1 914.5,-1271.1"/>
</g>
<!-- tensor_10 -->
<g id="node15" class="node">
<title>tensor_10</title>
<ellipse fill="none" stroke="black" cx="298" cy="-1026" rx="47.26" ry="18"/>
<text text-anchor="middle" x="298" y="-1020.95" font-family="Times,serif" font-size="14.00">tensor_10</text>
</g>
<!-- aten.native_batch_norm.default_3&#45;&gt;tensor_10 -->
<g id="edge13" class="edge">
<title>aten.native_batch_norm.default_3&#45;&gt;tensor_10</title>
<path fill="none" stroke="black" d="M316.07,-1079.7C313.45,-1072.07 310.31,-1062.92 307.39,-1054.4"/>
<polygon fill="black" stroke="black" points="310.42,-1053.43 303.86,-1045.1 303.8,-1055.7 310.42,-1053.43"/>
</g>
<!-- tensor_11 -->
<g id="node16" class="node">
<title>tensor_11</title>
<ellipse fill="none" stroke="black" cx="373" cy="-954" rx="47.26" ry="18"/>
<text text-anchor="middle" x="373" y="-948.95" font-family="Times,serif" font-size="14.00">tensor_11</text>
</g>
<!-- aten.native_batch_norm.default_3&#45;&gt;tensor_11 -->
<g id="edge14" class="edge">
<title>aten.native_batch_norm.default_3&#45;&gt;tensor_11</title>
<path fill="none" stroke="black" d="M334.52,-1079.62C341.19,-1069.63 349.02,-1056.59 354,-1044 361.77,-1024.36 366.61,-1000.95 369.46,-983.08"/>
<polygon fill="black" stroke="black" points="373.06,-983.62 371.05,-973.22 366.13,-982.61 373.06,-983.62"/>
</g>
<!-- tensor_12 -->
<g id="node17" class="node">
<title>tensor_12</title>
<ellipse fill="none" stroke="black" cx="428" cy="-882" rx="47.26" ry="18"/>
<text text-anchor="middle" x="428" y="-876.95" font-family="Times,serif" font-size="14.00">tensor_12</text>
</g>
<!-- aten.native_batch_norm.default_3&#45;&gt;tensor_12 -->
<g id="edge15" class="edge">
<title>aten.native_batch_norm.default_3&#45;&gt;tensor_12</title>
<path fill="none" stroke="black" d="M344.38,-1080.11C370.86,-1058.5 413.35,-1018.27 429,-972 435.62,-952.43 435.05,-929.02 433,-911.13"/>
<polygon fill="black" stroke="black" points="436.33,-910.68 431.5,-901.26 429.4,-911.64 436.33,-910.68"/>
</g>
<!-- tensor_6 -->
<g id="node11" class="node">
<title>tensor_6</title>
<ellipse fill="none" stroke="black" cx="74" cy="-1170" rx="42.65" ry="18"/>
<text text-anchor="middle" x="74" y="-1164.95" font-family="Times,serif" font-size="14.00">tensor_6</text>
</g>
<!-- tensor_6&#45;&gt;aten.native_batch_norm.default_3 -->
<g id="edge9" class="edge">
<title>tensor_6&#45;&gt;aten.native_batch_norm.default_3</title>
<path fill="none" stroke="black" d="M108.74,-1159.19C146.79,-1148.45 208.69,-1130.98 256.02,-1117.62"/>
<polygon fill="black" stroke="black" points="256.82,-1120.75 265.5,-1114.67 254.92,-1114.01 256.82,-1120.75"/>
</g>
<!-- tensor_6&#45;&gt;aten.native_batch_norm_backward.default_9 -->
<g id="edge29" class="edge">
<title>tensor_6&#45;&gt;aten.native_batch_norm_backward.default_9</title>
<path fill="none" stroke="black" d="M66.71,-1151.87C56.2,-1125.53 38,-1073.29 38,-1027 38,-1027 38,-1027 38,-377 38,-297.2 122.89,-261.97 204.67,-246.55"/>
<polygon fill="black" stroke="black" points="205.17,-249.84 214.4,-244.64 203.94,-242.95 205.17,-249.84"/>
</g>
<!-- tensor_7 -->
<g id="node12" class="node">
<title>tensor_7</title>
<ellipse fill="none" stroke="black" cx="299" cy="-1170" rx="42.65" ry="18"/>
<text text-anchor="middle" x="299" y="-1164.95" font-family="Times,serif" font-size="14.00">tensor_7</text>
</g>
<!-- tensor_7&#45;&gt;aten.native_batch_norm.default_3 -->
<g id="edge10" class="edge">
<title>tensor_7&#45;&gt;aten.native_batch_norm.default_3</title>
<path fill="none" stroke="black" d="M304.69,-1151.7C307.19,-1144.07 310.2,-1134.92 313,-1126.4"/>
<polygon fill="black" stroke="black" points="316.58,-1127.7 316.38,-1117.1 309.93,-1125.51 316.58,-1127.7"/>
</g>
<!-- tensor_8 -->
<g id="node13" class="node">
<title>tensor_8</title>
<ellipse fill="none" stroke="black" cx="190" cy="-1170" rx="42.65" ry="18"/>
<text text-anchor="middle" x="190" y="-1164.95" font-family="Times,serif" font-size="14.00">tensor_8</text>
</g>
<!-- tensor_8&#45;&gt;aten.native_batch_norm.default_3 -->
<g id="edge11" class="edge">
<title>tensor_8&#45;&gt;aten.native_batch_norm.default_3</title>
<path fill="none" stroke="black" d="M215.76,-1155.34C234.24,-1145.54 259.52,-1132.13 280.79,-1120.85"/>
<polygon fill="black" stroke="black" points="282.04,-1123.62 289.24,-1115.84 278.76,-1117.44 282.04,-1123.62"/>
</g>
<!-- tensor_8&#45;&gt;aten.native_batch_norm_backward.default_9 -->
<g id="edge30" class="edge">
<title>tensor_8&#45;&gt;aten.native_batch_norm_backward.default_9</title>
<path fill="none" stroke="black" d="M166.66,-1154.5C133.3,-1131.77 76,-1084.38 76,-1027 76,-1027 76,-1027 76,-377 76,-302.21 156.79,-266.78 231.27,-250.02"/>
<polygon fill="black" stroke="black" points="231.68,-253.3 240.73,-247.78 230.22,-246.46 231.68,-253.3"/>
</g>
<!-- tensor_9 -->
<g id="node14" class="node">
<title>tensor_9</title>
<ellipse fill="none" stroke="black" cx="402" cy="-1170" rx="42.65" ry="18"/>
<text text-anchor="middle" x="402" y="-1164.95" font-family="Times,serif" font-size="14.00">tensor_9</text>
</g>
<!-- tensor_9&#45;&gt;aten.native_batch_norm.default_3 -->
<g id="edge12" class="edge">
<title>tensor_9&#45;&gt;aten.native_batch_norm.default_3</title>
<path fill="none" stroke="black" d="M384.25,-1153.46C374.1,-1144.58 361.14,-1133.25 349.69,-1123.23"/>
<polygon fill="black" stroke="black" points="352.5,-1120.16 342.67,-1116.21 347.89,-1125.43 352.5,-1120.16"/>
</g>
<!-- tensor_9&#45;&gt;aten.native_batch_norm_backward.default_9 -->
<g id="edge31" class="edge">
<title>tensor_9&#45;&gt;aten.native_batch_norm_backward.default_9</title>
<path fill="none" stroke="black" d="M422.44,-1154.07C451.95,-1130.6 503,-1082.06 503,-1027 503,-1027 503,-1027 503,-377 503,-320.69 446.54,-279.9 403.13,-256.86"/>
<polygon fill="black" stroke="black" points="405.03,-253.39 394.54,-251.94 401.84,-259.61 405.03,-253.39"/>
</g>
<!-- aten.silu.default_4 -->
<g id="node18" class="node">
<title>aten.silu.default_4</title>
<ellipse fill="none" stroke="black" cx="197" cy="-954" rx="70.29" ry="18"/>
<text text-anchor="middle" x="197" y="-948.95" font-family="Times,serif" font-size="14.00">aten.silu.default</text>
</g>
<!-- tensor_10&#45;&gt;aten.silu.default_4 -->
<g id="edge16" class="edge">
<title>tensor_10&#45;&gt;aten.silu.default_4</title>
<path fill="none" stroke="black" d="M276.08,-1009.81C262.41,-1000.33 244.56,-987.96 229.28,-977.37"/>
<polygon fill="black" stroke="black" points="231.85,-974.2 221.63,-971.38 227.86,-979.95 231.85,-974.2"/>
</g>
<!-- aten.silu_backward.default_8 -->
<g id="node26" class="node">
<title>aten.silu_backward.default_8</title>
<ellipse fill="none" stroke="black" cx="215" cy="-378" rx="110.72" ry="18"/>
<text text-anchor="middle" x="215" y="-372.95" font-family="Times,serif" font-size="14.00">aten.silu_backward.default</text>
</g>
<!-- tensor_10&#45;&gt;aten.silu_backward.default_8 -->
<g id="edge25" class="edge">
<title>tensor_10&#45;&gt;aten.silu_backward.default_8</title>
<path fill="none" stroke="black" d="M299.24,-1007.81C303.3,-949.75 316,-755.64 316,-595 316,-595 316,-595 316,-521 316,-472.26 276,-428.63 246.35,-402.98"/>
<polygon fill="black" stroke="black" points="248.83,-399.66 238.92,-395.92 244.34,-405.03 248.83,-399.66"/>
</g>
<!-- tensor_11&#45;&gt;aten.native_batch_norm_backward.default_9 -->
<g id="edge32" class="edge">
<title>tensor_11&#45;&gt;aten.native_batch_norm_backward.default_9</title>
<path fill="none" stroke="black" d="M370.4,-935.57C365.19,-899.15 354,-812.29 354,-739 354,-739 354,-739 354,-377 354,-337.57 354,-291.97 354,-263.31"/>
<polygon fill="black" stroke="black" points="357.5,-263.49 354,-253.49 350.5,-263.49 357.5,-263.49"/>
</g>
<!-- tensor_12&#45;&gt;aten.native_batch_norm_backward.default_9 -->
<g id="edge33" class="edge">
<title>tensor_12&#45;&gt;aten.native_batch_norm_backward.default_9</title>
<path fill="none" stroke="black" d="M424.36,-863.6C419.1,-836.92 410,-784.23 410,-739 410,-739 410,-739 410,-377 410,-334.28 387.79,-289.06 371.35,-261.42"/>
<polygon fill="black" stroke="black" points="373.82,-259.76 365.6,-253.07 367.86,-263.42 373.82,-259.76"/>
</g>
<!-- tensor_13 -->
<g id="node19" class="node">
<title>tensor_13</title>
<ellipse fill="none" stroke="black" cx="196" cy="-882" rx="47.26" ry="18"/>
<text text-anchor="middle" x="196" y="-876.95" font-family="Times,serif" font-size="14.00">tensor_13</text>
</g>
<!-- aten.silu.default_4&#45;&gt;tensor_13 -->
<g id="edge17" class="edge">
<title>aten.silu.default_4&#45;&gt;tensor_13</title>
<path fill="none" stroke="black" d="M196.75,-935.7C196.65,-928.24 196.52,-919.32 196.4,-910.97"/>
<polygon fill="black" stroke="black" points="199.89,-911.05 196.24,-901.1 192.89,-911.15 199.89,-911.05"/>
</g>
<!-- aten.sum.default_5 -->
<g id="node20" class="node">
<title>aten.sum.default_5</title>
<ellipse fill="none" stroke="black" cx="196" cy="-810" rx="72.85" ry="18"/>
<text text-anchor="middle" x="196" y="-804.95" font-family="Times,serif" font-size="14.00">aten.sum.default</text>
</g>
<!-- tensor_13&#45;&gt;aten.sum.default_5 -->
<g id="edge18" class="edge">
<title>tensor_13&#45;&gt;aten.sum.default_5</title>
<path fill="none" stroke="black" d="M196,-863.7C196,-856.24 196,-847.32 196,-838.97"/>
<polygon fill="black" stroke="black" points="199.5,-839.1 196,-829.1 192.5,-839.1 199.5,-839.1"/>
</g>
<!-- tensor_14 -->
<g id="node21" class="node">
<title>tensor_14</title>
<ellipse fill="none" stroke="black" cx="196" cy="-738" rx="47.26" ry="18"/>
<text text-anchor="middle" x="196" y="-732.95" font-family="Times,serif" font-size="14.00">tensor_14</text>
</g>
<!-- aten.sum.default_5&#45;&gt;tensor_14 -->
<g id="edge19" class="edge">
<title>aten.sum.default_5&#45;&gt;tensor_14</title>
<path fill="none" stroke="black" d="M196,-791.7C196,-784.24 196,-775.32 196,-766.97"/>
<polygon fill="black" stroke="black" points="199.5,-767.1 196,-757.1 192.5,-767.1 199.5,-767.1"/>
</g>
<!-- aten.ones_like.default_6 -->
<g id="node22" class="node">
<title>aten.ones_like.default_6</title>
<ellipse fill="none" stroke="black" cx="196" cy="-666" rx="92.3" ry="18"/>
<text text-anchor="middle" x="196" y="-660.95" font-family="Times,serif" font-size="14.00">aten.ones_like.default</text>
</g>
<!-- tensor_14&#45;&gt;aten.ones_like.default_6 -->
<g id="edge20" class="edge">
<title>tensor_14&#45;&gt;aten.ones_like.default_6</title>
<path fill="none" stroke="black" d="M196,-719.7C196,-712.24 196,-703.32 196,-694.97"/>
<polygon fill="black" stroke="black" points="199.5,-695.1 196,-685.1 192.5,-695.1 199.5,-695.1"/>
</g>
<!-- tensor_15 -->
<g id="node23" class="node">
<title>tensor_15</title>
<ellipse fill="none" stroke="black" cx="198" cy="-594" rx="47.26" ry="18"/>
<text text-anchor="middle" x="198" y="-588.95" font-family="Times,serif" font-size="14.00">tensor_15</text>
</g>
<!-- aten.ones_like.default_6&#45;&gt;tensor_15 -->
<g id="edge21" class="edge">
<title>aten.ones_like.default_6&#45;&gt;tensor_15</title>
<path fill="none" stroke="black" d="M196.49,-647.7C196.71,-640.24 196.96,-631.32 197.2,-622.97"/>
<polygon fill="black" stroke="black" points="200.72,-623.2 197.51,-613.1 193.73,-623 200.72,-623.2"/>
</g>
<!-- aten.expand.default_7 -->
<g id="node24" class="node">
<title>aten.expand.default_7</title>
<ellipse fill="none" stroke="black" cx="202" cy="-522" rx="83.6" ry="18"/>
<text text-anchor="middle" x="202" y="-516.95" font-family="Times,serif" font-size="14.00">aten.expand.default</text>
</g>
<!-- tensor_15&#45;&gt;aten.expand.default_7 -->
<g id="edge22" class="edge">
<title>tensor_15&#45;&gt;aten.expand.default_7</title>
<path fill="none" stroke="black" d="M198.99,-575.7C199.42,-568.24 199.92,-559.32 200.4,-550.97"/>
<polygon fill="black" stroke="black" points="203.95,-551.29 201.02,-541.1 196.96,-550.89 203.95,-551.29"/>
</g>
<!-- tensor_16 -->
<g id="node25" class="node">
<title>tensor_16</title>
<ellipse fill="none" stroke="black" cx="208" cy="-450" rx="47.26" ry="18"/>
<text text-anchor="middle" x="208" y="-444.95" font-family="Times,serif" font-size="14.00">tensor_16</text>
</g>
<!-- aten.expand.default_7&#45;&gt;tensor_16 -->
<g id="edge23" class="edge">
<title>aten.expand.default_7&#45;&gt;tensor_16</title>
<path fill="none" stroke="black" d="M203.48,-503.7C204.12,-496.24 204.89,-487.32 205.6,-478.97"/>
<polygon fill="black" stroke="black" points="209.17,-479.37 206.53,-469.1 202.19,-478.77 209.17,-479.37"/>
</g>
<!-- tensor_16&#45;&gt;aten.silu_backward.default_8 -->
<g id="edge24" class="edge">
<title>tensor_16&#45;&gt;aten.silu_backward.default_8</title>
<path fill="none" stroke="black" d="M209.73,-431.7C210.48,-424.24 211.37,-415.32 212.2,-406.97"/>
<polygon fill="black" stroke="black" points="215.78,-407.4 213.29,-397.1 208.81,-406.71 215.78,-407.4"/>
</g>
<!-- tensor_17 -->
<g id="node27" class="node">
<title>tensor_17</title>
<ellipse fill="none" stroke="black" cx="247" cy="-306" rx="47.26" ry="18"/>
<text text-anchor="middle" x="247" y="-300.95" font-family="Times,serif" font-size="14.00">tensor_17</text>
</g>
<!-- aten.silu_backward.default_8&#45;&gt;tensor_17 -->
<g id="edge26" class="edge">
<title>aten.silu_backward.default_8&#45;&gt;tensor_17</title>
<path fill="none" stroke="black" d="M222.91,-359.7C226.48,-351.9 230.77,-342.51 234.74,-333.83"/>
<polygon fill="black" stroke="black" points="238.21,-335.65 239.18,-325.1 231.84,-332.74 238.21,-335.65"/>
</g>
<!-- tensor_17&#45;&gt;aten.native_batch_norm_backward.default_9 -->
<g id="edge27" class="edge">
<title>tensor_17&#45;&gt;aten.native_batch_norm_backward.default_9</title>
<path fill="none" stroke="black" d="M269.95,-289.98C284.12,-280.71 302.59,-268.63 318.6,-258.16"/>
<polygon fill="black" stroke="black" points="320.24,-260.61 326.69,-252.21 316.41,-254.76 320.24,-260.61"/>
</g>
<!-- tensor_18 -->
<g id="node29" class="node">
<title>tensor_18</title>
<ellipse fill="none" stroke="black" cx="354" cy="-162" rx="47.26" ry="18"/>
<text text-anchor="middle" x="354" y="-156.95" font-family="Times,serif" font-size="14.00">tensor_18</text>
</g>
<!-- aten.native_batch_norm_backward.default_9&#45;&gt;tensor_18 -->
<g id="edge34" class="edge">
<title>aten.native_batch_norm_backward.default_9&#45;&gt;tensor_18</title>
<path fill="none" stroke="black" d="M354,-215.7C354,-208.24 354,-199.32 354,-190.97"/>
<polygon fill="black" stroke="black" points="357.5,-191.1 354,-181.1 350.5,-191.1 357.5,-191.1"/>
</g>
<!-- tensor_19 -->
<g id="node30" class="node">
<title>tensor_19</title>
<ellipse fill="none" stroke="black" cx="241" cy="-162" rx="47.26" ry="18"/>
<text text-anchor="middle" x="241" y="-156.95" font-family="Times,serif" font-size="14.00">tensor_19</text>
</g>
<!-- aten.native_batch_norm_backward.default_9&#45;&gt;tensor_19 -->
<g id="edge35" class="edge">
<title>aten.native_batch_norm_backward.default_9&#45;&gt;tensor_19</title>
<path fill="none" stroke="black" d="M326.36,-215.88C310.63,-206.13 290.82,-193.86 274.24,-183.59"/>
<polygon fill="black" stroke="black" points="276.26,-180.1 265.91,-177.81 272.57,-186.05 276.26,-180.1"/>
</g>
<!-- tensor_20 -->
<g id="node31" class="node">
<title>tensor_20</title>
<ellipse fill="none" stroke="black" cx="467" cy="-162" rx="47.26" ry="18"/>
<text text-anchor="middle" x="467" y="-156.95" font-family="Times,serif" font-size="14.00">tensor_20</text>
</g>
<!-- aten.native_batch_norm_backward.default_9&#45;&gt;tensor_20 -->
<g id="edge36" class="edge">
<title>aten.native_batch_norm_backward.default_9&#45;&gt;tensor_20</title>
<path fill="none" stroke="black" d="M381.64,-215.88C397.37,-206.13 417.18,-193.86 433.76,-183.59"/>
<polygon fill="black" stroke="black" points="435.43,-186.05 442.09,-177.81 431.74,-180.1 435.43,-186.05"/>
</g>
<!-- tensor_18&#45;&gt;aten.convolution_backward.default_10 -->
<g id="edge37" class="edge">
<title>tensor_18&#45;&gt;aten.convolution_backward.default_10</title>
<path fill="none" stroke="black" d="M354,-143.7C354,-136.24 354,-127.32 354,-118.97"/>
<polygon fill="black" stroke="black" points="357.5,-119.1 354,-109.1 350.5,-119.1 357.5,-119.1"/>
</g>
<!-- tensor_21 -->
<g id="node33" class="node">
<title>tensor_21</title>
<ellipse fill="none" stroke="black" cx="241" cy="-18" rx="47.26" ry="18"/>
<text text-anchor="middle" x="241" y="-12.95" font-family="Times,serif" font-size="14.00">tensor_21</text>
</g>
<!-- aten.convolution_backward.default_10&#45;&gt;tensor_21 -->
<g id="edge40" class="edge">
<title>aten.convolution_backward.default_10&#45;&gt;tensor_21</title>
<path fill="none" stroke="black" d="M326.36,-71.88C310.63,-62.13 290.82,-49.86 274.24,-39.59"/>
<polygon fill="black" stroke="black" points="276.26,-36.1 265.91,-33.81 272.57,-42.05 276.26,-36.1"/>
</g>
<!-- tensor_22 -->
<g id="node34" class="node">
<title>tensor_22</title>
<ellipse fill="none" stroke="black" cx="354" cy="-18" rx="47.26" ry="18"/>
<text text-anchor="middle" x="354" y="-12.95" font-family="Times,serif" font-size="14.00">tensor_22</text>
</g>
<!-- aten.convolution_backward.default_10&#45;&gt;tensor_22 -->
<g id="edge41" class="edge">
<title>aten.convolution_backward.default_10&#45;&gt;tensor_22</title>
<path fill="none" stroke="black" d="M354,-71.7C354,-64.24 354,-55.32 354,-46.97"/>
<polygon fill="black" stroke="black" points="357.5,-47.1 354,-37.1 350.5,-47.1 357.5,-47.1"/>
</g>
<!-- tensor_23 -->
<g id="node35" class="node">
<title>tensor_23</title>
<ellipse fill="none" stroke="black" cx="467" cy="-18" rx="47.26" ry="18"/>
<text text-anchor="middle" x="467" y="-12.95" font-family="Times,serif" font-size="14.00">tensor_23</text>
</g>
<!-- aten.convolution_backward.default_10&#45;&gt;tensor_23 -->
<g id="edge42" class="edge">
<title>aten.convolution_backward.default_10&#45;&gt;tensor_23</title>
<path fill="none" stroke="black" d="M381.64,-71.88C397.37,-62.13 417.18,-49.86 433.76,-39.59"/>
<polygon fill="black" stroke="black" points="435.43,-42.05 442.09,-33.81 431.74,-36.1 435.43,-42.05"/>
</g>
</g>
</svg>
