<?xml version="1.0" encoding="UTF-8" standalone="no"?>
<!DOCTYPE svg PUBLIC "-//W3C//DTD SVG 1.1//EN"
 "http://www.w3.org/Graphics/SVG/1.1/DTD/svg11.dtd">
<!-- Generated by graphviz version 9.0.0 (20230911.1827)
 -->
<!-- Pages: 1 -->
<svg width="1035pt" height="1340pt"
 viewBox="0.00 0.00 1034.84 1340.00" xmlns="http://www.w3.org/2000/svg" xmlns:xlink="http://www.w3.org/1999/xlink">
<g id="graph0" class="graph" transform="scale(1 1) rotate(0) translate(4 1336)">
<polygon fill="white" stroke="none" points="-4,4 -4,-1336 1030.84,-1336 1030.84,4 -4,4"/>
<!-- aten.convolution.default_0 -->
<g id="node1" class="node">
<title>aten.convolution.default_0</title>
<ellipse fill="none" stroke="black" cx="450" cy="-1242" rx="101" ry="18"/>
<text text-anchor="middle" x="450" y="-1236.95" font-family="Times,serif" font-size="14.00">aten.convolution.default</text>
</g>
<!-- tensor_3 -->
<g id="node5" class="node">
<title>tensor_3</title>
<ellipse fill="none" stroke="black" cx="505" cy="-1170" rx="42.65" ry="18"/>
<text text-anchor="middle" x="505" y="-1164.95" font-family="Times,serif" font-size="14.00">tensor_3</text>
</g>
<!-- aten.convolution.default_0&#45;&gt;tensor_3 -->
<g id="edge4" class="edge">
<title>aten.convolution.default_0&#45;&gt;tensor_3</title>
<path fill="none" stroke="black" d="M463.6,-1223.7C470.02,-1215.52 477.81,-1205.6 484.9,-1196.58"/>
<polygon fill="black" stroke="black" points="487.58,-1198.84 491,-1188.81 482.07,-1194.51 487.58,-1198.84"/>
</g>
<!-- tensor_0 -->
<g id="node2" class="node">
<title>tensor_0</title>
<ellipse fill="none" stroke="black" cx="173" cy="-1314" rx="42.65" ry="18"/>
<text text-anchor="middle" x="173" y="-1308.95" font-family="Times,serif" font-size="14.00">tensor_0</text>
</g>
<!-- tensor_0&#45;&gt;aten.convolution.default_0 -->
<g id="edge1" class="edge">
<title>tensor_0&#45;&gt;aten.convolution.default_0</title>
<path fill="none" stroke="black" d="M208.93,-1303.92C252.75,-1292.85 327.75,-1273.89 382.48,-1260.06"/>
<polygon fill="black" stroke="black" points="383.18,-1263.5 392.02,-1257.65 381.47,-1256.71 383.18,-1263.5"/>
</g>
<!-- aten.convolution_backward.default_10 -->
<g id="node32" class="node">
<title>aten.convolution_backward.default_10</title>
<ellipse fill="none" stroke="black" cx="354" cy="-90" rx="141.43" ry="18"/>
<text text-anchor="middle" x="354" y="-84.95" font-family="Times,serif" font-size="14.00">aten.convolution_backward.default</text>
</g>
<!-- tensor_0&#45;&gt;aten.convolution_backward.default_10 -->
<g id="edge38" class="edge">
<title>tensor_0&#45;&gt;aten.convolution_backward.default_10</title>
<path fill="none" stroke="black" d="M139.64,-1302.59C89.37,-1284.57 0,-1242.5 0,-1171 0,-1171 0,-1171 0,-233 0,-175.66 162.02,-130.91 266.84,-107.96"/>
<polygon fill="black" stroke="black" points="267.54,-111.39 276.58,-105.86 266.07,-104.55 267.54,-111.39"/>
</g>
<!-- tensor_1 -->
<g id="node3" class="node">
<title>tensor_1</title>
<ellipse fill="none" stroke="black" cx="566" cy="-1314" rx="42.65" ry="18"/>
<text text-anchor="middle" x="566" y="-1308.95" font-family="Times,serif" font-size="14.00">tensor_1</text>
</g>
<!-- tensor_1&#45;&gt;aten.convolution.default_0 -->
<g id="edge2" class="edge">
<title>tensor_1&#45;&gt;aten.convolution.default_0</title>
<path fill="none" stroke="black" d="M542.25,-1298.67C526.47,-1289.15 505.44,-1276.45 487.44,-1265.59"/>
<polygon fill="black" stroke="black" points="489.47,-1262.73 479.1,-1260.56 485.85,-1268.72 489.47,-1262.73"/>
</g>
<!-- tensor_1&#45;&gt;aten.convolution_backward.default_10 -->
<g id="edge39" class="edge">
<title>tensor_1&#45;&gt;aten.convolution_backward.default_10</title>
<path fill="none" stroke="black" d="M568.63,-1295.56C572.43,-1268.82 579,-1216.06 579,-1171 579,-1171 579,-1171 579,-233 579,-186.27 560.02,-172.53 523,-144 501.47,-127.41 474.67,-115.96 448.8,-108.08"/>
<polygon fill="black" stroke="black" points="449.82,-104.73 439.24,-105.33 447.88,-111.46 449.82,-104.73"/>
</g>
<!-- tensor_2 -->
<g id="node4" class="node">
<title>tensor_2</title>
<ellipse fill="none" stroke="black" cx="450" cy="-1314" rx="42.65" ry="18"/>
<text text-anchor="middle" x="450" y="-1308.95" font-family="Times,serif" font-size="14.00">tensor_2</text>
</g>
<!-- tensor_2&#45;&gt;aten.convolution.default_0 -->
<g id="edge3" class="edge">
<title>tensor_2&#45;&gt;aten.convolution.default_0</title>
<path fill="none" stroke="black" d="M450,-1295.7C450,-1288.41 450,-1279.73 450,-1271.54"/>
<polygon fill="black" stroke="black" points="453.5,-1271.62 450,-1261.62 446.5,-1271.62 453.5,-1271.62"/>
</g>
<!-- aten.native_batch_norm.default_3 -->
<g id="node10" class="node">
<title>aten.native_batch_norm.default_3</title>
<ellipse fill="none" stroke="black" cx="322" cy="-1098" rx="128.63" ry="18"/>
<text text-anchor="middle" x="322" y="-1092.95" font-family="Times,serif" font-size="14.00">aten.native_batch_norm.default</text>
</g>
<!-- tensor_3&#45;&gt;aten.native_batch_norm.default_3 -->
<g id="edge8" class="edge">
<title>tensor_3&#45;&gt;aten.native_batch_norm.default_3</title>
<path fill="none" stroke="black" d="M474.37,-1157.28C447.4,-1146.97 407.52,-1131.71 375.33,-1119.4"/>
<polygon fill="black" stroke="black" points="376.74,-1116.19 366.15,-1115.89 374.24,-1122.73 376.74,-1116.19"/>
</g>
<!-- aten.native_batch_norm_backward.default_9 -->
<g id="node28" class="node">
<title>aten.native_batch_norm_backward.default_9</title>
<ellipse fill="none" stroke="black" cx="354" cy="-234" rx="169.07" ry="18"/>
<text text-anchor="middle" x="354" y="-228.95" font-family="Times,serif" font-size="14.00">aten.native_batch_norm_backward.default</text>
</g>
<!-- tensor_3&#45;&gt;aten.native_batch_norm_backward.default_9 -->
<g id="edge28" class="edge">
<title>tensor_3&#45;&gt;aten.native_batch_norm_backward.default_9</title>
<path fill="none" stroke="black" d="M512.29,-1151.87C522.8,-1125.53 541,-1073.29 541,-1027 541,-1027 541,-1027 541,-377 541,-314.8 474.57,-276.3 420.9,-255.35"/>
<polygon fill="black" stroke="black" points="422.37,-252.16 411.78,-251.92 419.91,-258.71 422.37,-252.16"/>
</g>
<!-- aten.add_.Tensor_1 -->
<g id="node6" class="node">
<title>aten.add_.Tensor_1</title>
<ellipse fill="none" stroke="black" cx="702" cy="-1314" rx="74.89" ry="18"/>
<text text-anchor="middle" x="702" y="-1308.95" font-family="Times,serif" font-size="14.00">aten.add_.Tensor</text>
</g>
<!-- tensor_4 -->
<g id="node7" class="node">
<title>tensor_4</title>
<ellipse fill="none" stroke="black" cx="702" cy="-1242" rx="42.65" ry="18"/>
<text text-anchor="middle" x="702" y="-1236.95" font-family="Times,serif" font-size="14.00">tensor_4</text>
</g>
<!-- aten.add_.Tensor_1&#45;&gt;tensor_4 -->
<g id="edge6" class="edge">
<title>aten.add_.Tensor_1&#45;&gt;tensor_4</title>
<path fill="none" stroke="black" d="M696.08,-1295.7C695.33,-1288.41 695.09,-1279.73 695.35,-1271.54"/>
<polygon fill="black" stroke="black" points="698.84,-1271.82 696.01,-1261.61 691.86,-1271.36 698.84,-1271.82"/>
</g>
<!-- tensor_4&#45;&gt;aten.add_.Tensor_1 -->
<g id="edge5" class="edge">
<title>tensor_4&#45;&gt;aten.add_.Tensor_1</title>
<path fill="none" stroke="black" d="M707.9,-1260.1C708.66,-1267.37 708.91,-1276.04 708.65,-1284.24"/>
<polygon fill="black" stroke="black" points="705.16,-1283.98 708.01,-1294.19 712.15,-1284.43 705.16,-1283.98"/>
</g>
<!-- aten.empty.memory_format_2 -->
<g id="node8" class="node">
<title>aten.empty.memory_format_2</title>
<ellipse fill="none" stroke="black" cx="911" cy="-1314" rx="115.84" ry="18"/>
<text text-anchor="middle" x="911" y="-1308.95" font-family="Times,serif" font-size="14.00">aten.empty.memory_format</text>
</g>
<!-- tensor_5 -->
<g id="node9" class="node">
<title>tensor_5</title>
<ellipse fill="none" stroke="black" cx="911" cy="-1242" rx="42.65" ry="18"/>
<text text-anchor="middle" x="911" y="-1236.95" font-family="Times,serif" font-size="14.00">tensor_5</text>
</g>
<!-- aten.empty.memory_format_2&#45;&gt;tensor_5 -->
<g id="edge7" class="edge">
<title>aten.empty.memory_format_2&#45;&gt;tensor_5</title>
<path fill="none" stroke="black" d="M911,-1295.7C911,-1288.41 911,-1279.73 911,-1271.54"/>
<polygon fill="black" stroke="black" points="914.5,-1271.62 911,-1261.62 907.5,-1271.62 914.5,-1271.62"/>
</g>
<!-- tensor_10 -->
<g id="node15" class="node">
<title>tensor_10</title>
<ellipse fill="none" stroke="black" cx="298" cy="-1026" rx="47.26" ry="18"/>
<text text-anchor="middle" x="298" y="-1020.95" font-family="Times,serif" font-size="14.00">tensor_10</text>
</g>
<!-- aten.native_batch_norm.default_3&#45;&gt;tensor_10 -->
<g id="edge13" class="edge">
<title>aten.native_batch_norm.default_3&#45;&gt;tensor_10</title>
<path fill="none" stroke="black" d="M316.07,-1079.7C313.51,-1072.24 310.45,-1063.32 307.59,-1054.97"/>
<polygon fill="black" stroke="black" points="310.91,-1053.86 304.36,-1045.54 304.29,-1056.13 310.91,-1053.86"/>
</g>
<!-- tensor_11 -->
<g id="node16" class="node">
<title>tensor_11</title>
<ellipse fill="none" stroke="black" cx="373" cy="-954" rx="47.26" ry="18"/>
<text text-anchor="middle" x="373" y="-948.95" font-family="Times,serif" font-size="14.00">tensor_11</text>
</g>
<!-- aten.native_batch_norm.default_3&#45;&gt;tensor_11 -->
<g id="edge14" class="edge">
<title>aten.native_batch_norm.default_3&#45;&gt;tensor_11</title>
<path fill="none" stroke="black" d="M334.52,-1079.62C341.19,-1069.63 349.02,-1056.59 354,-1044 361.7,-1024.54 366.52,-1001.4 369.37,-983.59"/>
<polygon fill="black" stroke="black" points="372.83,-984.12 370.83,-973.72 365.91,-983.1 372.83,-984.12"/>
</g>
<!-- tensor_12 -->
<g id="node17" class="node">
<title>tensor_12</title>
<ellipse fill="none" stroke="black" cx="428" cy="-882" rx="47.26" ry="18"/>
<text text-anchor="middle" x="428" y="-876.95" font-family="Times,serif" font-size="14.00">tensor_12</text>
</g>
<!-- aten.native_batch_norm.default_3&#45;&gt;tensor_12 -->
<g id="edge15" class="edge">
<title>aten.native_batch_norm.default_3&#45;&gt;tensor_12</title>
<path fill="none" stroke="black" d="M344.38,-1080.11C370.86,-1058.5 413.35,-1018.27 429,-972 435.56,-952.61 435.06,-929.47 433.06,-911.64"/>
<polygon fill="black" stroke="black" points="436.53,-911.19 431.7,-901.76 429.59,-912.14 436.53,-911.19"/>
</g>
<!-- tensor_6 -->
<g id="node11" class="node">
<title>tensor_6</title>
<ellipse fill="none" stroke="black" cx="74" cy="-1170" rx="42.65" ry="18"/>
<text text-anchor="middle" x="74" y="-1164.95" font-family="Times,serif" font-size="14.00">tensor_6</text>
</g>
<!-- tensor_6&#45;&gt;aten.native_batch_norm.default_3 -->
<g id="edge9" class="edge">
<title>tensor_6&#45;&gt;aten.native_batch_norm.default_3</title>
<path fill="none" stroke="black" d="M108.74,-1159.19C146.63,-1148.5 208.17,-1131.13 255.43,-1117.79"/>
<polygon fill="black" stroke="black" points="256.37,-1121.16 265.04,-1115.08 254.47,-1114.43 256.37,-1121.16"/>
</g>
<!-- tensor_6&#45;&gt;aten.native_batch_norm_backward.default_9 -->
<g id="edge29" class="edge">
<title>tensor_6&#45;&gt;aten.native_batch_norm_backward.default_9</title>
<path fill="none" stroke="black" d="M66.71,-1151.87C56.2,-1125.53 38,-1073.29 38,-1027 38,-1027 38,-1027 38,-377 38,-297.36 122.54,-262.11 204.17,-246.65"/>
<polygon fill="black" stroke="black" points="204.68,-250.11 213.91,-244.9 203.45,-243.22 204.68,-250.11"/>
</g>
<!-- tensor_7 -->
<g id="node12" class="node">
<title>tensor_7</title>
<ellipse fill="none" stroke="black" cx="299" cy="-1170" rx="42.65" ry="18"/>
<text text-anchor="middle" x="299" y="-1164.95" font-family="Times,serif" font-size="14.00">tensor_7</text>
</g>
<!-- tensor_7&#45;&gt;aten.native_batch_norm.default_3 -->
<g id="edge10" class="edge">
<title>tensor_7&#45;&gt;aten.native_batch_norm.default_3</title>
<path fill="none" stroke="black" d="M304.69,-1151.7C307.14,-1144.24 310.07,-1135.32 312.81,-1126.97"/>
<polygon fill="black" stroke="black" points="316.11,-1128.14 315.91,-1117.54 309.46,-1125.95 316.11,-1128.14"/>
</g>
<!-- tensor_8 -->
<g id="node13" class="node">
<title>tensor_8</title>
<ellipse fill="none" stroke="black" cx="190" cy="-1170" rx="42.65" ry="18"/>
<text text-anchor="middle" x="190" y="-1164.95" font-family="Times,serif" font-size="14.00">tensor_8</text>
</g>
<!-- tensor_8&#45;&gt;aten.native_batch_norm.default_3 -->
<g id="edge11" class="edge">
<title>tensor_8&#45;&gt;aten.native_batch_norm.default_3</title>
<path fill="none" stroke="black" d="M215.76,-1155.34C234.08,-1145.63 259.07,-1132.37 280.21,-1121.16"/>
<polygon fill="black" stroke="black" points="281.71,-1124.33 288.9,-1116.55 278.43,-1118.15 281.71,-1124.33"/>
</g>
<!-- tensor_8&#45;&gt;aten.native_batch_norm_backward.default_9 -->
<g id="edge30" class="edge">
<title>tensor_8&#45;&gt;aten.native_batch_norm_backward.default_9</title>
<path fill="none" stroke="black" d="M166.66,-1154.5C133.3,-1131.77 76,-1084.38 76,-1027 76,-1027 76,-1027 76,-377 76,-302.36 156.46,-266.93 230.81,-250.13"/>
<polygon fill="black" stroke="black" points="231.21,-253.62 240.25,-248.1 229.74,-246.78 231.21,-253.62"/>
</g>
<!-- tensor_9 -->
<g id="node14" class="node">
<title>tensor_9</title>
<ellipse fill="none" stroke="black" cx="402" cy="-1170" rx="42.65" ry="18"/>
<text text-anchor="middle" x="402" y="-1164.95" font-family="Times,serif" font-size="14.00">tensor_9</text>
</g>
<!-- tensor_9&#45;&gt;aten.native_batch_norm.default_3 -->
<g id="edge12" class="edge">
<title>tensor_9&#45;&gt;aten.native_batch_norm.default_3</title>
<path fill="none" stroke="black" d="M384.25,-1153.46C374.19,-1144.67 361.4,-1133.47 350.02,-1123.52"/>
<polygon fill="black" stroke="black" points="352.64,-1121.16 342.81,-1117.21 348.03,-1126.43 352.64,-1121.16"/>
</g>
<!-- tensor_9&#45;&gt;aten.native_batch_norm_backward.default_9 -->
<g id="edge31" class="edge">
<title>tensor_9&#45;&gt;aten.native_batch_norm_backward.default_9</title>
<path fill="none" stroke="black" d="M422.44,-1154.07C451.95,-1130.6 503,-1082.06 503,-1027 503,-1027 503,-1027 503,-377 503,-320.93 447.02,-280.24 403.68,-257.15"/>
<polygon fill="black" stroke="black" points="405.38,-254.09 394.88,-252.63 402.18,-260.31 405.38,-254.09"/>
</g>
<!-- aten.silu.default_4 -->
<g id="node18" class="node">
<title>aten.silu.default_4</title>
<ellipse fill="none" stroke="black" cx="197" cy="-954" rx="70.29" ry="18"/>
<text text-anchor="middle" x="197" y="-948.95" font-family="Times,serif" font-size="14.00">aten.silu.default</text>
</g>
<!-- tensor_10&#45;&gt;aten.silu.default_4 -->
<g id="edge16" class="edge">
<title>tensor_10&#45;&gt;aten.silu.default_4</title>
<path fill="none" stroke="black" d="M276.08,-1009.81C262.54,-1000.42 244.89,-988.19 229.71,-977.67"/>
<polygon fill="black" stroke="black" points="232.09,-975.06 221.88,-972.24 228.1,-980.82 232.09,-975.06"/>
</g>
<!-- aten.silu_backward.default_8 -->
<g id="node26" class="node">
<title>aten.silu_backward.default_8</title>
<ellipse fill="none" stroke="black" cx="215" cy="-378" rx="110.72" ry="18"/>
<text text-anchor="middle" x="215" y="-372.95" font-family="Times,serif" font-size="14.00">aten.silu_backward.default</text>
</g>
<!-- tensor_10&#45;&gt;aten.silu_backward.default_8 -->
<g id="edge25" class="edge">
<title>tensor_10&#45;&gt;aten.silu_backward.default_8</title>
<path fill="none" stroke="black" d="M299.24,-1007.81C303.3,-949.75 316,-755.64 316,-595 316,-595 316,-595 316,-521 316,-472.47 276.35,-429.01 246.73,-403.31"/>
<polygon fill="black" stroke="black" points="248.99,-400.64 239.08,-396.9 244.49,-406 248.99,-400.64"/>
</g>
<!-- tensor_11&#45;&gt;aten.native_batch_norm_backward.default_9 -->
<g id="edge32" class="edge">
<title>tensor_11&#45;&gt;aten.native_batch_norm_backward.default_9</title>
<path fill="none" stroke="black" d="M370.4,-935.57C365.19,-899.15 354,-812.29 354,-739 354,-739 354,-739 354,-377 354,-337.74 354,-292.38 354,-263.69"/>
<polygon fill="black" stroke="black" points="357.5,-264 354,-254 350.5,-264 357.5,-264"/>
</g>
<!-- tensor_12&#45;&gt;aten.native_batch_norm_backward.default_9 -->
<g id="edge33" class="edge">
<title>tensor_12&#45;&gt;aten.native_batch_norm_backward.default_9</title>
<path fill="none" stroke="black" d="M424.36,-863.6C419.1,-836.92 410,-784.23 410,-739 410,-739 410,-739 410,-377 410,-334.47 387.99,-289.45 371.57,-261.78"/>
<polygon fill="black" stroke="black" points="374.61,-260.05 366.4,-253.36 368.64,-263.71 374.61,-260.05"/>
</g>
<!-- tensor_13 -->
<g id="node19" class="node">
<title>tensor_13</title>
<ellipse fill="none" stroke="black" cx="196" cy="-882" rx="47.26" ry="18"/>
<text text-anchor="middle" x="196" y="-876.95" font-family="Times,serif" font-size="14.00">tensor_13</text>
</g>
<!-- aten.silu.default_4&#45;&gt;tensor_13 -->
<g id="edge17" class="edge">
<title>aten.silu.default_4&#45;&gt;tensor_13</title>
<path fill="none" stroke="black" d="M196.75,-935.7C196.65,-928.41 196.52,-919.73 196.41,-911.54"/>
<polygon fill="black" stroke="black" points="199.91,-911.57 196.27,-901.62 192.91,-911.67 199.91,-911.57"/>
</g>
<!-- aten.sum.default_5 -->
<g id="node20" class="node">
<title>aten.sum.default_5</title>
<ellipse fill="none" stroke="black" cx="196" cy="-810" rx="72.85" ry="18"/>
<text text-anchor="middle" x="196" y="-804.95" font-family="Times,serif" font-size="14.00">aten.sum.default</text>
</g>
<!-- tensor_13&#45;&gt;aten.sum.default_5 -->
<g id="edge18" class="edge">
<title>tensor_13&#45;&gt;aten.sum.default_5</title>
<path fill="none" stroke="black" d="M196,-863.7C196,-856.41 196,-847.73 196,-839.54"/>
<polygon fill="black" stroke="black" points="199.5,-839.62 196,-829.62 192.5,-839.62 199.5,-839.62"/>
</g>
<!-- tensor_14 -->
<g id="node21" class="node">
<title>tensor_14</title>
<ellipse fill="none" stroke="black" cx="196" cy="-738" rx="47.26" ry="18"/>
<text text-anchor="middle" x="196" y="-732.95" font-family="Times,serif" font-size="14.00">tensor_14</text>
</g>
<!-- aten.sum.default_5&#45;&gt;tensor_14 -->
<g id="edge19" class="edge">
<title>aten.sum.default_5&#45;&gt;tensor_14</title>
<path fill="none" stroke="black" d="M196,-791.7C196,-784.41 196,-775.73 196,-767.54"/>
<polygon fill="black" stroke="black" points="199.5,-767.62 196,-757.62 192.5,-767.62 199.5,-767.62"/>
</g>
<!-- aten.ones_like.default_6 -->
<g id="node22" class="node">
<title>aten.ones_like.default_6</title>
<ellipse fill="none" stroke="black" cx="196" cy="-666" rx="92.3" ry="18"/>
<text text-anchor="middle" x="196" y="-660.95" font-family="Times,serif" font-size="14.00">aten.ones_like.default</text>
</g>
<!-- tensor_14&#45;&gt;aten.ones_like.default_6 -->
<g id="edge20" class="edge">
<title>tensor_14&#45;&gt;aten.ones_like.default_6</title>
<path fill="none" stroke="black" d="M196,-719.7C196,-712.41 196,-703.73 196,-695.54"/>
<polygon fill="black" stroke="black" points="199.5,-695.62 196,-685.62 192.5,-695.62 199.5,-695.62"/>
</g>
<!-- tensor_15 -->
<g id="node23" class="node">
<title>tensor_15</title>
<ellipse fill="none" stroke="black" cx="198" cy="-594" rx="47.26" ry="18"/>
<text text-anchor="middle" x="198" y="-588.95" font-family="Times,serif" font-size="14.00">tensor_15</text>
</g>
<!-- aten.ones_like.default_6&#45;&gt;tensor_15 -->
<g id="edge21" class="edge">
<title>aten.ones_like.default_6&#45;&gt;tensor_15</title>
<path fill="none" stroke="black" d="M196.49,-647.7C196.7,-640.41 196.95,-631.73 197.18,-623.54"/>
<polygon fill="black" stroke="black" points="200.68,-623.71 197.47,-613.62 193.68,-623.51 200.68,-623.71"/>
</g>
<!-- aten.expand.default_7 -->
<g id="node24" class="node">
<title>aten.expand.default_7</title>
<ellipse fill="none" stroke="black" cx="202" cy="-522" rx="83.6" ry="18"/>
<text text-anchor="middle" x="202" y="-516.95" font-family="Times,serif" font-size="14.00">aten.expand.default</text>
</g>
<!-- tensor_15&#45;&gt;aten.expand.default_7 -->
<g id="edge22" class="edge">
<title>tensor_15&#45;&gt;aten.expand.default_7</title>
<path fill="none" stroke="black" d="M198.99,-575.7C199.41,-568.41 199.9,-559.73 200.37,-551.54"/>
<polygon fill="black" stroke="black" points="203.86,-551.8 200.94,-541.62 196.87,-551.4 203.86,-551.8"/>
</g>
<!-- tensor_16 -->
<g id="node25" class="node">
<title>tensor_16</title>
<ellipse fill="none" stroke="black" cx="208" cy="-450" rx="47.26" ry="18"/>
<text text-anchor="middle" x="208" y="-444.95" font-family="Times,serif" font-size="14.00">tensor_16</text>
</g>
<!-- aten.expand.default_7&#45;&gt;tensor_16 -->
<g id="edge23" class="edge">
<title>aten.expand.default_7&#45;&gt;tensor_16</title>
<path fill="none" stroke="black" d="M203.48,-503.7C204.11,-496.41 204.85,-487.73 205.55,-479.54"/>
<polygon fill="black" stroke="black" points="209.04,-479.87 206.4,-469.61 202.06,-479.28 209.04,-479.87"/>
</g>
<!-- tensor_16&#45;&gt;aten.silu_backward.default_8 -->
<g id="edge24" class="edge">
<title>tensor_16&#45;&gt;aten.silu_backward.default_8</title>
<path fill="none" stroke="black" d="M209.73,-431.7C210.46,-424.41 211.33,-415.73 212.15,-407.54"/>
<polygon fill="black" stroke="black" points="215.63,-407.91 213.14,-397.61 208.66,-407.21 215.63,-407.91"/>
</g>
<!-- tensor_17 -->
<g id="node27" class="node">
<title>tensor_17</title>
<ellipse fill="none" stroke="black" cx="247" cy="-306" rx="47.26" ry="18"/>
<text text-anchor="middle" x="247" y="-300.95" font-family="Times,serif" font-size="14.00">tensor_17</text>
</g>
<!-- aten.silu_backward.default_8&#45;&gt;tensor_17 -->
<g id="edge26" class="edge">
<title>aten.silu_backward.default_8&#45;&gt;tensor_17</title>
<path fill="none" stroke="black" d="M222.91,-359.7C226.4,-352.07 230.58,-342.92 234.48,-334.4"/>
<polygon fill="black" stroke="black" points="237.58,-336.03 238.55,-325.48 231.21,-333.12 237.58,-336.03"/>
</g>
<!-- tensor_17&#45;&gt;aten.native_batch_norm_backward.default_9 -->
<g id="edge27" class="edge">
<title>tensor_17&#45;&gt;aten.native_batch_norm_backward.default_9</title>
<path fill="none" stroke="black" d="M269.95,-289.98C283.99,-280.8 302.24,-268.86 318.15,-258.45"/>
<polygon fill="black" stroke="black" points="319.98,-261.44 326.43,-253.04 316.14,-255.58 319.98,-261.44"/>
</g>
<!-- tensor_18 -->
<g id="node29" class="node">
<title>tensor_18</title>
<ellipse fill="none" stroke="black" cx="354" cy="-162" rx="47.26" ry="18"/>
<text text-anchor="middle" x="354" y="-156.95" font-family="Times,serif" font-size="14.00">tensor_18</text>
</g>
<!-- aten.native_batch_norm_backward.default_9&#45;&gt;tensor_18 -->
<g id="edge34" class="edge">
<title>aten.native_batch_norm_backward.default_9&#45;&gt;tensor_18</title>
<path fill="none" stroke="black" d="M354,-215.7C354,-208.41 354,-199.73 354,-191.54"/>
<polygon fill="black" stroke="black" points="357.5,-191.62 354,-181.62 350.5,-191.62 357.5,-191.62"/>
</g>
<!-- tensor_19 -->
<g id="node30" class="node">
<title>tensor_19</title>
<ellipse fill="none" stroke="black" cx="241" cy="-162" rx="47.26" ry="18"/>
<text text-anchor="middle" x="241" y="-156.95" font-family="Times,serif" font-size="14.00">tensor_19</text>
</g>
<!-- aten.native_batch_norm_backward.default_9&#45;&gt;tensor_19 -->
<g id="edge35" class="edge">
<title>aten.native_batch_norm_backward.default_9&#45;&gt;tensor_19</title>
<path fill="none" stroke="black" d="M326.36,-215.88C310.63,-206.13 290.82,-193.86 274.24,-183.59"/>
<polygon fill="black" stroke="black" points="276.54,-180.9 266.2,-178.61 272.86,-186.85 276.54,-180.9"/>
</g>
<!-- tensor_20 -->
<g id="node31" class="node">
<title>tensor_20</title>
<ellipse fill="none" stroke="black" cx="467" cy="-162" rx="47.26" ry="18"/>
<text text-anchor="middle" x="467" y="-156.95" font-family="Times,serif" font-size="14.00">tensor_20</text>
</g>
<!-- aten.native_batch_norm_backward.default_9&#45;&gt;tensor_20 -->
<g id="edge36" class="edge">
<title>aten.native_batch_norm_backward.default_9&#45;&gt;tensor_20</title>
<path fill="none" stroke="black" d="M381.64,-215.88C397.37,-206.13 417.18,-193.86 433.76,-183.59"/>
<polygon fill="black" stroke="black" points="435.14,-186.85 441.8,-178.61 431.46,-180.9 435.14,-186.85"/>
</g>
<!-- tensor_18&#45;&gt;aten.convolution_backward.default_10 -->
<g id="edge37" class="edge">
<title>tensor_18&#45;&gt;aten.convolution_backward.default_10</title>
<path fill="none" stroke="black" d="M354,-143.7C354,-136.41 354,-127.73 354,-119.54"/>
<polygon fill="black" stroke="black" points="357.5,-119.62 354,-109.62 350.5,-119.62 357.5,-119.62"/>
</g>
<!-- tensor_21 -->
<g id="node33" class="node">
<title>tensor_21</title>
<ellipse fill="none" stroke="black" cx="241" cy="-18" rx="47.26" ry="18"/>
<text text-anchor="middle" x="241" y="-12.95" font-family="Times,serif" font-size="14.00">tensor_21</text>
</g>
<!-- aten.convolution_backward.default_10&#45;&gt;tensor_21 -->
<g id="edge40" class="edge">
<title>aten.convolution_backward.default_10&#45;&gt;tensor_21</title>
<path fill="none" stroke="black" d="M326.36,-71.88C310.63,-62.13 290.82,-49.86 274.24,-39.59"/>
<polygon fill="black" stroke="black" points="276.54,-36.9 266.2,-34.61 272.86,-42.85 276.54,-36.9"/>
</g>
<!-- tensor_22 -->
<g id="node34" class="node">
<title>tensor_22</title>
<ellipse fill="none" stroke="black" cx="354" cy="-18" rx="47.26" ry="18"/>
<text text-anchor="middle" x="354" y="-12.95" font-family="Times,serif" font-size="14.00">tensor_22</text>
</g>
<!-- aten.convolution_backward.default_10&#45;&gt;tensor_22 -->
<g id="edge41" class="edge">
<title>aten.convolution_backward.default_10&#45;&gt;tensor_22</title>
<path fill="none" stroke="black" d="M354,-71.7C354,-64.41 354,-55.73 354,-47.54"/>
<polygon fill="black" stroke="black" points="357.5,-47.62 354,-37.62 350.5,-47.62 357.5,-47.62"/>
</g>
<!-- tensor_23 -->
<g id="node35" class="node">
<title>tensor_23</title>
<ellipse fill="none" stroke="black" cx="467" cy="-18" rx="47.26" ry="18"/>
<text text-anchor="middle" x="467" y="-12.95" font-family="Times,serif" font-size="14.00">tensor_23</text>
</g>
<!-- aten.convolution_backward.default_10&#45;&gt;tensor_23 -->
<g id="edge42" class="edge">
<title>aten.convolution_backward.default_10&#45;&gt;tensor_23</title>
<path fill="none" stroke="black" d="M381.64,-71.88C397.37,-62.13 417.18,-49.86 433.76,-39.59"/>
<polygon fill="black" stroke="black" points="435.14,-42.85 441.8,-34.61 431.46,-36.9 435.14,-42.85"/>
</g>
</g>
</svg>
